<?xml version="1.0" encoding="UTF-8" standalone="no"?>
<!DOCTYPE svg PUBLIC "-//W3C//DTD SVG 1.1//EN"
 "http://www.w3.org/Graphics/SVG/1.1/DTD/svg11.dtd">
<!-- Generated by graphviz version 2.47.0 (20210316.0004)
 -->
<!-- Title: dependencies Pages: 1 -->
<svg width="648pt" height="284pt"
 viewBox="0.00 0.00 648.00 284.00" xmlns="http://www.w3.org/2000/svg" xmlns:xlink="http://www.w3.org/1999/xlink">
<g id="graph0" class="graph" transform="scale(1 1) rotate(0) translate(4 280)">
<title>dependencies</title>
<polygon fill="white" stroke="transparent" points="-4,4 -4,-280 644,-280 644,4 -4,4"/>
<text text-anchor="start" x="299.01" y="-42.4" font-family="Times-12" font-weight="bold" font-size="14.00">Legend</text>
<polygon fill="#ffffb3" stroke="transparent" points="86,-10 86,-30 106,-30 106,-10 86,-10"/>
<text text-anchor="start" x="109.63" y="-15.4" font-family="Times-12" font-size="14.00"> &#160;Declarations</text>
<polygon fill="#8dd3c7" stroke="transparent" points="199,-10 199,-30 219,-30 219,-10 199,-10"/>
<text text-anchor="start" x="222.73" y="-15.4" font-family="Times-12" font-size="14.00"> &#160;Module</text>
<polygon fill="#80b1d3" stroke="transparent" points="285,-10 285,-30 305,-30 305,-10 285,-10"/>
<text text-anchor="start" x="308.78" y="-15.4" font-family="Times-12" font-size="14.00"> &#160;Bootstrap</text>
<polygon fill="#fdb462" stroke="transparent" points="382,-10 382,-30 402,-30 402,-10 382,-10"/>
<text text-anchor="start" x="405.67" y="-15.4" font-family="Times-12" font-size="14.00"> &#160;Providers</text>
<polygon fill="#fb8072" stroke="transparent" points="478,-10 478,-30 498,-30 498,-10 478,-10"/>
<text text-anchor="start" x="501.73" y="-15.4" font-family="Times-12" font-size="14.00"> &#160;Exports</text>
<g id="clust1" class="cluster">
<title>cluster_UserCategoryModule</title>
<polygon fill="none" stroke="black" stroke-dasharray="1,5" points="8,-70 8,-268 632,-268 632,-70 8,-70"/>
</g>
<g id="clust4" class="cluster">
<title>cluster_UserCategoryModule_exports</title>
<polygon fill="none" stroke="black" points="229,-208 229,-260 385,-260 385,-208 229,-208"/>
</g>
<g id="clust6" class="cluster">
<title>cluster_UserCategoryModule_providers</title>
<polygon fill="none" stroke="black" points="16,-78 16,-130 624,-130 624,-78 16,-78"/>
</g>
<!-- UserCategoryService  -->
<g id="node1" class="node">
<title>UserCategoryService </title>
<polygon fill="#fb8072" stroke="black" points="376.72,-252 237.28,-252 237.28,-216 376.72,-216 376.72,-252"/>
<text text-anchor="middle" x="307" y="-229.8" font-family="Times,serif" font-size="14.00">UserCategoryService </text>
</g>
<!-- UserCategoryModule -->
<g id="node2" class="node">
<title>UserCategoryModule</title>
<polygon fill="#8dd3c7" stroke="black" points="375.79,-187 372.79,-191 351.79,-191 348.79,-187 238.21,-187 238.21,-151 375.79,-151 375.79,-187"/>
<text text-anchor="middle" x="307" y="-164.8" font-family="Times,serif" font-size="14.00">UserCategoryModule</text>
</g>
<!-- UserCategoryModule&#45;&gt;UserCategoryService  -->
<g id="edge1" class="edge">
<title>UserCategoryModule&#45;&gt;UserCategoryService </title>
<path fill="none" stroke="black" stroke-dasharray="5,2" d="M307,-187.11C307,-187.11 307,-205.99 307,-205.99"/>
<polygon fill="black" stroke="black" points="303.5,-205.99 307,-215.99 310.5,-205.99 303.5,-205.99"/>
</g>
<!-- AuthenticateMiddleware -->
<g id="node3" class="node">
<title>AuthenticateMiddleware</title>
<ellipse fill="#fdb462" stroke="black" cx="509" cy="-104" rx="107.06" ry="18"/>
<text text-anchor="middle" x="509" y="-99.8" font-family="Times,serif" font-size="14.00">AuthenticateMiddleware</text>
</g>
<!-- AuthenticateMiddleware&#45;&gt;UserCategoryModule -->
<g id="edge2" class="edge">
<title>AuthenticateMiddleware&#45;&gt;UserCategoryModule</title>
<path fill="none" stroke="black" d="M509,-122.11C509,-141.34 509,-169 509,-169 509,-169 385.67,-169 385.67,-169"/>
<polygon fill="black" stroke="black" points="385.67,-165.5 375.67,-169 385.67,-172.5 385.67,-165.5"/>
</g>
<!-- ResponseService -->
<g id="node4" class="node">
<title>ResponseService</title>
<ellipse fill="#fdb462" stroke="black" cx="307" cy="-104" rx="77" ry="18"/>
<text text-anchor="middle" x="307" y="-99.8" font-family="Times,serif" font-size="14.00">ResponseService</text>
</g>
<!-- ResponseService&#45;&gt;UserCategoryModule -->
<g id="edge3" class="edge">
<title>ResponseService&#45;&gt;UserCategoryModule</title>
<path fill="none" stroke="black" d="M307,-122.11C307,-122.11 307,-140.99 307,-140.99"/>
<polygon fill="black" stroke="black" points="303.5,-140.99 307,-150.99 310.5,-140.99 303.5,-140.99"/>
</g>
<!-- UserCategoryService -->
<g id="node5" class="node">
<title>UserCategoryService</title>
<ellipse fill="#fdb462" stroke="black" cx="118" cy="-104" rx="93.74" ry="18"/>
<text text-anchor="middle" x="118" y="-99.8" font-family="Times,serif" font-size="14.00">UserCategoryService</text>
</g>
<!-- UserCategoryService&#45;&gt;UserCategoryModule -->
<g id="edge4" class="edge">
<title>UserCategoryService&#45;&gt;UserCategoryModule</title>
<path fill="none" stroke="black" d="M118,-122.11C118,-141.34 118,-169 118,-169 118,-169 228.23,-169 228.23,-169"/>
<polygon fill="black" stroke="black" points="228.23,-172.5 238.23,-169 228.23,-165.5 228.23,-172.5"/>
</g>
</g>
</svg>
