<?xml version="1.0" encoding="UTF-8" standalone="no"?>
<!DOCTYPE svg PUBLIC "-//W3C//DTD SVG 1.1//EN"
 "http://www.w3.org/Graphics/SVG/1.1/DTD/svg11.dtd">
<!-- Generated by graphviz version 2.47.0 (20210316.0004)
 -->
<!-- Title: dependencies Pages: 1 -->
<svg width="702pt" height="284pt"
 viewBox="0.00 0.00 702.00 284.00" xmlns="http://www.w3.org/2000/svg" xmlns:xlink="http://www.w3.org/1999/xlink">
<g id="graph0" class="graph" transform="scale(1 1) rotate(0) translate(4 280)">
<title>dependencies</title>
<polygon fill="white" stroke="transparent" points="-4,4 -4,-280 698,-280 698,4 -4,4"/>
<text text-anchor="start" x="326.01" y="-42.4" font-family="Times-12" font-weight="bold" font-size="14.00">Legend</text>
<polygon fill="#ffffb3" stroke="transparent" points="113,-10 113,-30 133,-30 133,-10 113,-10"/>
<text text-anchor="start" x="136.63" y="-15.4" font-family="Times-12" font-size="14.00"> &#160;Declarations</text>
<polygon fill="#8dd3c7" stroke="transparent" points="226,-10 226,-30 246,-30 246,-10 226,-10"/>
<text text-anchor="start" x="249.73" y="-15.4" font-family="Times-12" font-size="14.00"> &#160;Module</text>
<polygon fill="#80b1d3" stroke="transparent" points="312,-10 312,-30 332,-30 332,-10 312,-10"/>
<text text-anchor="start" x="335.78" y="-15.4" font-family="Times-12" font-size="14.00"> &#160;Bootstrap</text>
<polygon fill="#fdb462" stroke="transparent" points="409,-10 409,-30 429,-30 429,-10 409,-10"/>
<text text-anchor="start" x="432.67" y="-15.4" font-family="Times-12" font-size="14.00"> &#160;Providers</text>
<polygon fill="#fb8072" stroke="transparent" points="505,-10 505,-30 525,-30 525,-10 505,-10"/>
<text text-anchor="start" x="528.73" y="-15.4" font-family="Times-12" font-size="14.00"> &#160;Exports</text>
<g id="clust1" class="cluster">
<title>cluster_SharedModule</title>
<polygon fill="none" stroke="black" stroke-dasharray="1,5" points="8,-70 8,-268 686,-268 686,-70 8,-70"/>
</g>
<g id="clust3" class="cluster">
<title>cluster_SharedModule_imports</title>
<polygon fill="none" stroke="black" points="586,-78 586,-130 678,-130 678,-78 586,-78"/>
</g>
<g id="clust4" class="cluster">
<title>cluster_SharedModule_exports</title>
<polygon fill="none" stroke="black" points="160,-208 160,-260 591,-260 591,-208 160,-208"/>
</g>
<g id="clust6" class="cluster">
<title>cluster_SharedModule_providers</title>
<polygon fill="none" stroke="black" points="16,-78 16,-130 578,-130 578,-78 16,-78"/>
</g>
<!-- DbModule -->
<g id="node1" class="node">
<title>DbModule</title>
<polygon fill="#8dd3c7" stroke="black" points="670.16,-122 667.16,-126 646.16,-126 643.16,-122 593.84,-122 593.84,-86 670.16,-86 670.16,-122"/>
<text text-anchor="middle" x="632" y="-99.8" font-family="Times,serif" font-size="14.00">DbModule</text>
</g>
<!-- SharedModule -->
<g id="node2" class="node">
<title>SharedModule</title>
<polygon fill="#8dd3c7" stroke="black" points="403.42,-187 400.42,-191 379.42,-191 376.42,-187 304.58,-187 304.58,-151 403.42,-151 403.42,-187"/>
<text text-anchor="middle" x="354" y="-164.8" font-family="Times,serif" font-size="14.00">SharedModule</text>
</g>
<!-- DbModule&#45;&gt;SharedModule -->
<g id="edge1" class="edge">
<title>DbModule&#45;&gt;SharedModule</title>
<path fill="none" stroke="black" d="M632,-122.02C632,-139.37 632,-163 632,-163 632,-163 413.38,-163 413.38,-163"/>
<polygon fill="black" stroke="black" points="413.38,-159.5 403.38,-163 413.38,-166.5 413.38,-159.5"/>
</g>
<!-- AuthenticateMiddleware  -->
<g id="node3" class="node">
<title>AuthenticateMiddleware </title>
<polygon fill="#fb8072" stroke="black" points="583.16,-252 424.84,-252 424.84,-216 583.16,-216 583.16,-252"/>
<text text-anchor="middle" x="504" y="-229.8" font-family="Times,serif" font-size="14.00">AuthenticateMiddleware </text>
</g>
<!-- SharedModule&#45;&gt;AuthenticateMiddleware  -->
<g id="edge2" class="edge">
<title>SharedModule&#45;&gt;AuthenticateMiddleware </title>
<path fill="none" stroke="black" stroke-dasharray="5,2" d="M403.33,-175C444.8,-175 497.35,-175 497.35,-175 497.35,-175 497.35,-205.98 497.35,-205.98"/>
<polygon fill="black" stroke="black" points="493.85,-205.98 497.35,-215.98 500.85,-205.98 493.85,-205.98"/>
</g>
<!-- PaginateHelper  -->
<g id="node4" class="node">
<title>PaginateHelper </title>
<polygon fill="#fb8072" stroke="black" points="406.79,-252 301.21,-252 301.21,-216 406.79,-216 406.79,-252"/>
<text text-anchor="middle" x="354" y="-229.8" font-family="Times,serif" font-size="14.00">PaginateHelper </text>
</g>
<!-- SharedModule&#45;&gt;PaginateHelper  -->
<g id="edge3" class="edge">
<title>SharedModule&#45;&gt;PaginateHelper </title>
<path fill="none" stroke="black" stroke-dasharray="5,2" d="M354,-187.11C354,-187.11 354,-205.99 354,-205.99"/>
<polygon fill="black" stroke="black" points="350.5,-205.99 354,-215.99 357.5,-205.99 350.5,-205.99"/>
</g>
<!-- ResponseService  -->
<g id="node5" class="node">
<title>ResponseService </title>
<polygon fill="#fb8072" stroke="black" points="283.63,-252 168.37,-252 168.37,-216 283.63,-216 283.63,-252"/>
<text text-anchor="middle" x="226" y="-229.8" font-family="Times,serif" font-size="14.00">ResponseService </text>
</g>
<!-- SharedModule&#45;&gt;ResponseService  -->
<g id="edge4" class="edge">
<title>SharedModule&#45;&gt;ResponseService </title>
<path fill="none" stroke="black" stroke-dasharray="5,2" d="M304.66,-175C273.85,-175 240,-175 240,-175 240,-175 240,-205.98 240,-205.98"/>
<polygon fill="black" stroke="black" points="236.5,-205.98 240,-215.98 243.5,-205.98 236.5,-205.98"/>
</g>
<!-- AuthenticateMiddleware -->
<g id="node6" class="node">
<title>AuthenticateMiddleware</title>
<ellipse fill="#fdb462" stroke="black" cx="463" cy="-104" rx="107.06" ry="18"/>
<text text-anchor="middle" x="463" y="-99.8" font-family="Times,serif" font-size="14.00">AuthenticateMiddleware</text>
</g>
<!-- AuthenticateMiddleware&#45;&gt;SharedModule -->
<g id="edge5" class="edge">
<title>AuthenticateMiddleware&#45;&gt;SharedModule</title>
<path fill="none" stroke="black" d="M379.59,-115.32C379.59,-115.32 379.59,-140.94 379.59,-140.94"/>
<polygon fill="black" stroke="black" points="376.09,-140.94 379.59,-150.94 383.09,-140.94 376.09,-140.94"/>
</g>
<!-- PaginateHelper -->
<g id="node7" class="node">
<title>PaginateHelper</title>
<ellipse fill="#fdb462" stroke="black" cx="267" cy="-104" rx="70.62" ry="18"/>
<text text-anchor="middle" x="267" y="-99.8" font-family="Times,serif" font-size="14.00">PaginateHelper</text>
</g>
<!-- PaginateHelper&#45;&gt;SharedModule -->
<g id="edge6" class="edge">
<title>PaginateHelper&#45;&gt;SharedModule</title>
<path fill="none" stroke="black" d="M321.17,-115.62C321.17,-115.62 321.17,-140.85 321.17,-140.85"/>
<polygon fill="black" stroke="black" points="317.68,-140.85 321.17,-150.85 324.68,-140.85 317.68,-140.85"/>
</g>
<!-- ResponseService -->
<g id="node8" class="node">
<title>ResponseService</title>
<ellipse fill="#fdb462" stroke="black" cx="101" cy="-104" rx="77" ry="18"/>
<text text-anchor="middle" x="101" y="-99.8" font-family="Times,serif" font-size="14.00">ResponseService</text>
</g>
<!-- ResponseService&#45;&gt;SharedModule -->
<g id="edge7" class="edge">
<title>ResponseService&#45;&gt;SharedModule</title>
<path fill="none" stroke="black" d="M173.22,-110.31C173.22,-125.53 173.22,-163 173.22,-163 173.22,-163 294.6,-163 294.6,-163"/>
<polygon fill="black" stroke="black" points="294.6,-166.5 304.6,-163 294.6,-159.5 294.6,-166.5"/>
</g>
</g>
</svg>
