<?xml version="1.0" encoding="UTF-8" standalone="no"?>
<!DOCTYPE svg PUBLIC "-//W3C//DTD SVG 1.1//EN"
 "http://www.w3.org/Graphics/SVG/1.1/DTD/svg11.dtd">
<!-- Generated by graphviz version 2.47.0 (20210316.0004)
 -->
<!-- Title: dependencies Pages: 1 -->
<svg width="702pt" height="284pt"
 viewBox="0.00 0.00 702.00 284.00" xmlns="http://www.w3.org/2000/svg" xmlns:xlink="http://www.w3.org/1999/xlink">
<g id="graph0" class="graph" transform="scale(1 1) rotate(0) translate(4 280)">
<title>dependencies</title>
<polygon fill="white" stroke="transparent" points="-4,4 -4,-280 698,-280 698,4 -4,4"/>
<text text-anchor="start" x="326.01" y="-42.4" font-family="Times-12" font-weight="bold" font-size="14.00">Legend</text>
<polygon fill="#ffffb3" stroke="transparent" points="113,-10 113,-30 133,-30 133,-10 113,-10"/>
<text text-anchor="start" x="136.63" y="-15.4" font-family="Times-12" font-size="14.00"> &#160;Declarations</text>
<polygon fill="#8dd3c7" stroke="transparent" points="226,-10 226,-30 246,-30 246,-10 226,-10"/>
<text text-anchor="start" x="249.73" y="-15.4" font-family="Times-12" font-size="14.00"> &#160;Module</text>
<polygon fill="#80b1d3" stroke="transparent" points="312,-10 312,-30 332,-30 332,-10 312,-10"/>
<text text-anchor="start" x="335.78" y="-15.4" font-family="Times-12" font-size="14.00"> &#160;Bootstrap</text>
<polygon fill="#fdb462" stroke="transparent" points="409,-10 409,-30 429,-30 429,-10 409,-10"/>
<text text-anchor="start" x="432.67" y="-15.4" font-family="Times-12" font-size="14.00"> &#160;Providers</text>
<polygon fill="#fb8072" stroke="transparent" points="505,-10 505,-30 525,-30 525,-10 505,-10"/>
<text text-anchor="start" x="528.73" y="-15.4" font-family="Times-12" font-size="14.00"> &#160;Exports</text>
<g id="clust1" class="cluster">
<title>cluster_SharedModule</title>
<polygon fill="none" stroke="black" stroke-dasharray="1,5" points="8,-70 8,-268 686,-268 686,-70 8,-70"/>
</g>
<g id="clust4" class="cluster">
<title>cluster_SharedModule_exports</title>
<polygon fill="none" stroke="black" points="94,-208 94,-260 525,-260 525,-208 94,-208"/>
</g>
<g id="clust6" class="cluster">
<title>cluster_SharedModule_providers</title>
<polygon fill="none" stroke="black" points="116,-78 116,-130 678,-130 678,-78 116,-78"/>
</g>
<g id="clust3" class="cluster">
<title>cluster_SharedModule_imports</title>
<polygon fill="none" stroke="black" points="16,-78 16,-130 108,-130 108,-78 16,-78"/>
</g>
<!-- DbModule -->
<g id="node1" class="node">
<title>DbModule</title>
<polygon fill="#8dd3c7" stroke="black" points="100.16,-122 97.16,-126 76.16,-126 73.16,-122 23.84,-122 23.84,-86 100.16,-86 100.16,-122"/>
<text text-anchor="middle" x="62" y="-99.8" font-family="Times,serif" font-size="14.00">DbModule</text>
</g>
<!-- SharedModule -->
<g id="node2" class="node">
<title>SharedModule</title>
<polygon fill="#8dd3c7" stroke="black" points="337.42,-187 334.42,-191 313.42,-191 310.42,-187 238.58,-187 238.58,-151 337.42,-151 337.42,-187"/>
<text text-anchor="middle" x="288" y="-164.8" font-family="Times,serif" font-size="14.00">SharedModule</text>
</g>
<!-- DbModule&#45;&gt;SharedModule -->
<g id="edge1" class="edge">
<title>DbModule&#45;&gt;SharedModule</title>
<path fill="none" stroke="black" d="M62,-122.02C62,-139.37 62,-163 62,-163 62,-163 228.68,-163 228.68,-163"/>
<polygon fill="black" stroke="black" points="228.68,-166.5 238.68,-163 228.68,-159.5 228.68,-166.5"/>
</g>
<!-- AuthenticateMiddleware  -->
<g id="node3" class="node">
<title>AuthenticateMiddleware </title>
<polygon fill="#fb8072" stroke="black" points="517.16,-252 358.84,-252 358.84,-216 517.16,-216 517.16,-252"/>
<text text-anchor="middle" x="438" y="-229.8" font-family="Times,serif" font-size="14.00">AuthenticateMiddleware </text>
</g>
<!-- SharedModule&#45;&gt;AuthenticateMiddleware  -->
<g id="edge2" class="edge">
<title>SharedModule&#45;&gt;AuthenticateMiddleware </title>
<path fill="none" stroke="black" stroke-dasharray="5,2" d="M337.26,-175C366.58,-175 398.11,-175 398.11,-175 398.11,-175 398.11,-205.98 398.11,-205.98"/>
<polygon fill="black" stroke="black" points="394.61,-205.98 398.11,-215.98 401.61,-205.98 394.61,-205.98"/>
</g>
<!-- PaginateHelper  -->
<g id="node4" class="node">
<title>PaginateHelper </title>
<polygon fill="#fb8072" stroke="black" points="340.79,-252 235.21,-252 235.21,-216 340.79,-216 340.79,-252"/>
<text text-anchor="middle" x="288" y="-229.8" font-family="Times,serif" font-size="14.00">PaginateHelper </text>
</g>
<!-- SharedModule&#45;&gt;PaginateHelper  -->
<g id="edge3" class="edge">
<title>SharedModule&#45;&gt;PaginateHelper </title>
<path fill="none" stroke="black" stroke-dasharray="5,2" d="M288,-187.11C288,-187.11 288,-205.99 288,-205.99"/>
<polygon fill="black" stroke="black" points="284.5,-205.99 288,-215.99 291.5,-205.99 284.5,-205.99"/>
</g>
<!-- ResponseService  -->
<g id="node5" class="node">
<title>ResponseService </title>
<polygon fill="#fb8072" stroke="black" points="217.63,-252 102.37,-252 102.37,-216 217.63,-216 217.63,-252"/>
<text text-anchor="middle" x="160" y="-229.8" font-family="Times,serif" font-size="14.00">ResponseService </text>
</g>
<!-- SharedModule&#45;&gt;ResponseService  -->
<g id="edge4" class="edge">
<title>SharedModule&#45;&gt;ResponseService </title>
<path fill="none" stroke="black" stroke-dasharray="5,2" d="M238.63,-175C206.59,-175 170.78,-175 170.78,-175 170.78,-175 170.78,-205.98 170.78,-205.98"/>
<polygon fill="black" stroke="black" points="167.28,-205.98 170.78,-215.98 174.28,-205.98 167.28,-205.98"/>
</g>
<!-- AuthenticateMiddleware -->
<g id="node6" class="node">
<title>AuthenticateMiddleware</title>
<ellipse fill="#fdb462" stroke="black" cx="563" cy="-104" rx="107.06" ry="18"/>
<text text-anchor="middle" x="563" y="-99.8" font-family="Times,serif" font-size="14.00">AuthenticateMiddleware</text>
</g>
<!-- AuthenticateMiddleware&#45;&gt;SharedModule -->
<g id="edge5" class="edge">
<title>AuthenticateMiddleware&#45;&gt;SharedModule</title>
<path fill="none" stroke="black" d="M486.65,-116.8C486.65,-134.15 486.65,-163 486.65,-163 486.65,-163 347.36,-163 347.36,-163"/>
<polygon fill="black" stroke="black" points="347.36,-159.5 337.36,-163 347.36,-166.5 347.36,-159.5"/>
</g>
<!-- PaginateHelper -->
<g id="node7" class="node">
<title>PaginateHelper</title>
<ellipse fill="#fdb462" stroke="black" cx="367" cy="-104" rx="70.62" ry="18"/>
<text text-anchor="middle" x="367" y="-99.8" font-family="Times,serif" font-size="14.00">PaginateHelper</text>
</g>
<!-- PaginateHelper&#45;&gt;SharedModule -->
<g id="edge6" class="edge">
<title>PaginateHelper&#45;&gt;SharedModule</title>
<path fill="none" stroke="black" d="M316.83,-116.84C316.83,-116.84 316.83,-140.52 316.83,-140.52"/>
<polygon fill="black" stroke="black" points="313.33,-140.52 316.83,-150.52 320.33,-140.52 313.33,-140.52"/>
</g>
<!-- ResponseService -->
<g id="node8" class="node">
<title>ResponseService</title>
<ellipse fill="#fdb462" stroke="black" cx="201" cy="-104" rx="77" ry="18"/>
<text text-anchor="middle" x="201" y="-99.8" font-family="Times,serif" font-size="14.00">ResponseService</text>
</g>
<!-- ResponseService&#45;&gt;SharedModule -->
<g id="edge7" class="edge">
<title>ResponseService&#45;&gt;SharedModule</title>
<path fill="none" stroke="black" d="M258.4,-116.23C258.4,-116.23 258.4,-140.68 258.4,-140.68"/>
<polygon fill="black" stroke="black" points="254.9,-140.68 258.4,-150.68 261.9,-140.68 254.9,-140.68"/>
</g>
</g>
</svg>
