<?xml version="1.0" encoding="UTF-8" standalone="no"?>
<!DOCTYPE svg PUBLIC "-//W3C//DTD SVG 1.1//EN"
 "http://www.w3.org/Graphics/SVG/1.1/DTD/svg11.dtd">
<!-- Generated by graphviz version 2.47.0 (20210316.0004)
 -->
<!-- Title: dependencies Pages: 1 -->
<svg width="736pt" height="284pt"
 viewBox="0.00 0.00 736.00 284.00" xmlns="http://www.w3.org/2000/svg" xmlns:xlink="http://www.w3.org/1999/xlink">
<g id="graph0" class="graph" transform="scale(1 1) rotate(0) translate(4 280)">
<title>dependencies</title>
<polygon fill="white" stroke="transparent" points="-4,4 -4,-280 732,-280 732,4 -4,4"/>
<text text-anchor="start" x="343.01" y="-42.4" font-family="Times-12" font-weight="bold" font-size="14.00">Legend</text>
<polygon fill="#ffffb3" stroke="transparent" points="130,-10 130,-30 150,-30 150,-10 130,-10"/>
<text text-anchor="start" x="153.63" y="-15.4" font-family="Times-12" font-size="14.00"> &#160;Declarations</text>
<polygon fill="#8dd3c7" stroke="transparent" points="243,-10 243,-30 263,-30 263,-10 243,-10"/>
<text text-anchor="start" x="266.73" y="-15.4" font-family="Times-12" font-size="14.00"> &#160;Module</text>
<polygon fill="#80b1d3" stroke="transparent" points="329,-10 329,-30 349,-30 349,-10 329,-10"/>
<text text-anchor="start" x="352.78" y="-15.4" font-family="Times-12" font-size="14.00"> &#160;Bootstrap</text>
<polygon fill="#fdb462" stroke="transparent" points="426,-10 426,-30 446,-30 446,-10 426,-10"/>
<text text-anchor="start" x="449.67" y="-15.4" font-family="Times-12" font-size="14.00"> &#160;Providers</text>
<polygon fill="#fb8072" stroke="transparent" points="522,-10 522,-30 542,-30 542,-10 522,-10"/>
<text text-anchor="start" x="545.73" y="-15.4" font-family="Times-12" font-size="14.00"> &#160;Exports</text>
<g id="clust1" class="cluster">
<title>cluster_UserModule</title>
<polygon fill="none" stroke="black" stroke-dasharray="1,5" points="8,-70 8,-268 720,-268 720,-70 8,-70"/>
</g>
<g id="clust4" class="cluster">
<title>cluster_UserModule_exports</title>
<polygon fill="none" stroke="black" points="266,-208 266,-260 370,-260 370,-208 266,-208"/>
</g>
<g id="clust6" class="cluster">
<title>cluster_UserModule_providers</title>
<polygon fill="none" stroke="black" points="16,-78 16,-130 712,-130 712,-78 16,-78"/>
</g>
<!-- UserService  -->
<g id="node1" class="node">
<title>UserService </title>
<polygon fill="#fb8072" stroke="black" points="361.9,-252 274.1,-252 274.1,-216 361.9,-216 361.9,-252"/>
<text text-anchor="middle" x="318" y="-229.8" font-family="Times,serif" font-size="14.00">UserService </text>
</g>
<!-- UserModule -->
<g id="node2" class="node">
<title>UserModule</title>
<polygon fill="#8dd3c7" stroke="black" points="360.98,-187 357.98,-191 336.98,-191 333.98,-187 275.02,-187 275.02,-151 360.98,-151 360.98,-187"/>
<text text-anchor="middle" x="318" y="-164.8" font-family="Times,serif" font-size="14.00">UserModule</text>
</g>
<!-- UserModule&#45;&gt;UserService  -->
<g id="edge1" class="edge">
<title>UserModule&#45;&gt;UserService </title>
<path fill="none" stroke="black" stroke-dasharray="5,2" d="M318,-187.11C318,-187.11 318,-205.99 318,-205.99"/>
<polygon fill="black" stroke="black" points="314.5,-205.99 318,-215.99 321.5,-205.99 314.5,-205.99"/>
</g>
<!-- AuthenticateMiddleware -->
<g id="node3" class="node">
<title>AuthenticateMiddleware</title>
<ellipse fill="#fdb462" stroke="black" cx="597" cy="-104" rx="107.06" ry="18"/>
<text text-anchor="middle" x="597" y="-99.8" font-family="Times,serif" font-size="14.00">AuthenticateMiddleware</text>
</g>
<!-- AuthenticateMiddleware&#45;&gt;UserModule -->
<g id="edge2" class="edge">
<title>AuthenticateMiddleware&#45;&gt;UserModule</title>
<path fill="none" stroke="black" d="M597,-122.11C597,-141.34 597,-169 597,-169 597,-169 370.98,-169 370.98,-169"/>
<polygon fill="black" stroke="black" points="370.98,-165.5 360.98,-169 370.98,-172.5 370.98,-165.5"/>
</g>
<!-- PaginateHelper -->
<g id="node4" class="node">
<title>PaginateHelper</title>
<ellipse fill="#fdb462" stroke="black" cx="401" cy="-104" rx="70.62" ry="18"/>
<text text-anchor="middle" x="401" y="-99.8" font-family="Times,serif" font-size="14.00">PaginateHelper</text>
</g>
<!-- PaginateHelper&#45;&gt;UserModule -->
<g id="edge3" class="edge">
<title>PaginateHelper&#45;&gt;UserModule</title>
<path fill="none" stroke="black" d="M345.71,-115.32C345.71,-115.32 345.71,-140.94 345.71,-140.94"/>
<polygon fill="black" stroke="black" points="342.21,-140.94 345.71,-150.94 349.21,-140.94 342.21,-140.94"/>
</g>
<!-- ResponseService -->
<g id="node5" class="node">
<title>ResponseService</title>
<ellipse fill="#fdb462" stroke="black" cx="235" cy="-104" rx="77" ry="18"/>
<text text-anchor="middle" x="235" y="-99.8" font-family="Times,serif" font-size="14.00">ResponseService</text>
</g>
<!-- ResponseService&#45;&gt;UserModule -->
<g id="edge4" class="edge">
<title>ResponseService&#45;&gt;UserModule</title>
<path fill="none" stroke="black" d="M293.51,-115.92C293.51,-115.92 293.51,-140.77 293.51,-140.77"/>
<polygon fill="black" stroke="black" points="290.01,-140.77 293.51,-150.77 297.01,-140.77 290.01,-140.77"/>
</g>
<!-- UserService -->
<g id="node6" class="node">
<title>UserService</title>
<ellipse fill="#fdb462" stroke="black" cx="82" cy="-104" rx="58.44" ry="18"/>
<text text-anchor="middle" x="82" y="-99.8" font-family="Times,serif" font-size="14.00">UserService</text>
</g>
<!-- UserService&#45;&gt;UserModule -->
<g id="edge5" class="edge">
<title>UserService&#45;&gt;UserModule</title>
<path fill="none" stroke="black" d="M82,-122.11C82,-141.34 82,-169 82,-169 82,-169 264.99,-169 264.99,-169"/>
<polygon fill="black" stroke="black" points="264.99,-172.5 274.99,-169 264.99,-165.5 264.99,-172.5"/>
</g>
</g>
</svg>
