<?xml version="1.0" encoding="UTF-8" standalone="no"?>
<!DOCTYPE svg PUBLIC "-//W3C//DTD SVG 1.1//EN"
 "http://www.w3.org/Graphics/SVG/1.1/DTD/svg11.dtd">
<!-- Generated by graphviz version 2.47.0 (20210316.0004)
 -->
<!-- Title: dependencies Pages: 1 -->
<svg width="749pt" height="284pt"
 viewBox="0.00 0.00 749.00 284.00" xmlns="http://www.w3.org/2000/svg" xmlns:xlink="http://www.w3.org/1999/xlink">
<g id="graph0" class="graph" transform="scale(1 1) rotate(0) translate(4 280)">
<title>dependencies</title>
<polygon fill="white" stroke="transparent" points="-4,4 -4,-280 745,-280 745,4 -4,4"/>
<text text-anchor="start" x="349.51" y="-42.4" font-family="Times-12" font-weight="bold" font-size="14.00">Legend</text>
<polygon fill="#ffffb3" stroke="transparent" points="136.5,-10 136.5,-30 156.5,-30 156.5,-10 136.5,-10"/>
<text text-anchor="start" x="160.13" y="-15.4" font-family="Times-12" font-size="14.00"> &#160;Declarations</text>
<polygon fill="#8dd3c7" stroke="transparent" points="249.5,-10 249.5,-30 269.5,-30 269.5,-10 249.5,-10"/>
<text text-anchor="start" x="273.23" y="-15.4" font-family="Times-12" font-size="14.00"> &#160;Module</text>
<polygon fill="#80b1d3" stroke="transparent" points="335.5,-10 335.5,-30 355.5,-30 355.5,-10 335.5,-10"/>
<text text-anchor="start" x="359.28" y="-15.4" font-family="Times-12" font-size="14.00"> &#160;Bootstrap</text>
<polygon fill="#fdb462" stroke="transparent" points="432.5,-10 432.5,-30 452.5,-30 452.5,-10 432.5,-10"/>
<text text-anchor="start" x="456.17" y="-15.4" font-family="Times-12" font-size="14.00"> &#160;Providers</text>
<polygon fill="#fb8072" stroke="transparent" points="528.5,-10 528.5,-30 548.5,-30 548.5,-10 528.5,-10"/>
<text text-anchor="start" x="552.23" y="-15.4" font-family="Times-12" font-size="14.00"> &#160;Exports</text>
<g id="clust1" class="cluster">
<title>cluster_AuthModule</title>
<polygon fill="none" stroke="black" stroke-dasharray="1,5" points="8,-70 8,-268 733,-268 733,-70 8,-70"/>
</g>
<g id="clust4" class="cluster">
<title>cluster_AuthModule_exports</title>
<polygon fill="none" stroke="black" points="310,-208 310,-260 416,-260 416,-208 310,-208"/>
</g>
<g id="clust6" class="cluster">
<title>cluster_AuthModule_providers</title>
<polygon fill="none" stroke="black" points="126,-78 126,-130 725,-130 725,-78 126,-78"/>
</g>
<g id="clust3" class="cluster">
<title>cluster_AuthModule_imports</title>
<polygon fill="none" stroke="black" points="16,-78 16,-130 118,-130 118,-78 16,-78"/>
</g>
<!-- MailModule -->
<g id="node1" class="node">
<title>MailModule</title>
<polygon fill="#8dd3c7" stroke="black" points="109.99,-122 106.99,-126 85.99,-126 82.99,-122 24.01,-122 24.01,-86 109.99,-86 109.99,-122"/>
<text text-anchor="middle" x="67" y="-99.8" font-family="Times,serif" font-size="14.00">MailModule</text>
</g>
<!-- AuthModule -->
<g id="node2" class="node">
<title>AuthModule</title>
<polygon fill="#8dd3c7" stroke="black" points="406.55,-187 403.55,-191 382.55,-191 379.55,-187 319.45,-187 319.45,-151 406.55,-151 406.55,-187"/>
<text text-anchor="middle" x="363" y="-164.8" font-family="Times,serif" font-size="14.00">AuthModule</text>
</g>
<!-- MailModule&#45;&gt;AuthModule -->
<g id="edge1" class="edge">
<title>MailModule&#45;&gt;AuthModule</title>
<path fill="none" stroke="black" d="M67,-122.28C67,-143.32 67,-175 67,-175 67,-175 309.32,-175 309.32,-175"/>
<polygon fill="black" stroke="black" points="309.32,-178.5 319.32,-175 309.32,-171.5 309.32,-178.5"/>
</g>
<!-- AuthService  -->
<g id="node3" class="node">
<title>AuthService </title>
<polygon fill="#fb8072" stroke="black" points="407.98,-252 318.02,-252 318.02,-216 407.98,-216 407.98,-252"/>
<text text-anchor="middle" x="363" y="-229.8" font-family="Times,serif" font-size="14.00">AuthService </text>
</g>
<!-- AuthModule&#45;&gt;AuthService  -->
<g id="edge2" class="edge">
<title>AuthModule&#45;&gt;AuthService </title>
<path fill="none" stroke="black" stroke-dasharray="5,2" d="M363,-187.11C363,-187.11 363,-205.99 363,-205.99"/>
<polygon fill="black" stroke="black" points="359.5,-205.99 363,-215.99 366.5,-205.99 359.5,-205.99"/>
</g>
<!-- AuthService -->
<g id="node4" class="node">
<title>AuthService</title>
<ellipse fill="#fdb462" stroke="black" cx="658" cy="-104" rx="59.11" ry="18"/>
<text text-anchor="middle" x="658" y="-99.8" font-family="Times,serif" font-size="14.00">AuthService</text>
</g>
<!-- AuthService&#45;&gt;AuthModule -->
<g id="edge3" class="edge">
<title>AuthService&#45;&gt;AuthModule</title>
<path fill="none" stroke="black" d="M658,-122.28C658,-143.32 658,-175 658,-175 658,-175 416.85,-175 416.85,-175"/>
<polygon fill="black" stroke="black" points="416.85,-171.5 406.85,-175 416.85,-178.5 416.85,-171.5"/>
</g>
<!-- GoogleStrategy -->
<g id="node5" class="node">
<title>GoogleStrategy</title>
<ellipse fill="#fdb462" stroke="black" cx="509" cy="-104" rx="71.79" ry="18"/>
<text text-anchor="middle" x="509" y="-99.8" font-family="Times,serif" font-size="14.00">GoogleStrategy</text>
</g>
<!-- GoogleStrategy&#45;&gt;AuthModule -->
<g id="edge4" class="edge">
<title>GoogleStrategy&#45;&gt;AuthModule</title>
<path fill="none" stroke="black" d="M509,-122.02C509,-139.37 509,-163 509,-163 509,-163 416.8,-163 416.8,-163"/>
<polygon fill="black" stroke="black" points="416.8,-159.5 406.8,-163 416.8,-166.5 416.8,-159.5"/>
</g>
<!-- JwtStrategy -->
<g id="node6" class="node">
<title>JwtStrategy</title>
<ellipse fill="#fdb462" stroke="black" cx="363" cy="-104" rx="56.76" ry="18"/>
<text text-anchor="middle" x="363" y="-99.8" font-family="Times,serif" font-size="14.00">JwtStrategy</text>
</g>
<!-- JwtStrategy&#45;&gt;AuthModule -->
<g id="edge5" class="edge">
<title>JwtStrategy&#45;&gt;AuthModule</title>
<path fill="none" stroke="black" d="M363,-122.11C363,-122.11 363,-140.99 363,-140.99"/>
<polygon fill="black" stroke="black" points="359.5,-140.99 363,-150.99 366.5,-140.99 359.5,-140.99"/>
</g>
<!-- ResponseService -->
<g id="node7" class="node">
<title>ResponseService</title>
<ellipse fill="#fdb462" stroke="black" cx="211" cy="-104" rx="77" ry="18"/>
<text text-anchor="middle" x="211" y="-99.8" font-family="Times,serif" font-size="14.00">ResponseService</text>
</g>
<!-- ResponseService&#45;&gt;AuthModule -->
<g id="edge6" class="edge">
<title>ResponseService&#45;&gt;AuthModule</title>
<path fill="none" stroke="black" d="M211,-122.02C211,-139.37 211,-163 211,-163 211,-163 309.44,-163 309.44,-163"/>
<polygon fill="black" stroke="black" points="309.44,-166.5 319.44,-163 309.44,-159.5 309.44,-166.5"/>
</g>
</g>
</svg>
