<?xml version="1.0" encoding="UTF-8" standalone="no"?>
<!DOCTYPE svg PUBLIC "-//W3C//DTD SVG 1.1//EN"
 "http://www.w3.org/Graphics/SVG/1.1/DTD/svg11.dtd">
<!-- Generated by graphviz version 2.47.0 (20210316.0004)
 -->
<!-- Title: dependencies Pages: 1 -->
<svg width="1626pt" height="211pt"
 viewBox="0.00 0.00 1626.00 211.00" xmlns="http://www.w3.org/2000/svg" xmlns:xlink="http://www.w3.org/1999/xlink">
<g id="graph0" class="graph" transform="scale(1 1) rotate(0) translate(4 207)">
<title>dependencies</title>
<polygon fill="white" stroke="transparent" points="-4,4 -4,-207 1622,-207 1622,4 -4,4"/>
<text text-anchor="start" x="788.01" y="-42.4" font-family="Times-12" font-weight="bold" font-size="14.00">Legend</text>
<polygon fill="#ffffb3" stroke="transparent" points="575,-10 575,-30 595,-30 595,-10 575,-10"/>
<text text-anchor="start" x="598.63" y="-15.4" font-family="Times-12" font-size="14.00"> &#160;Declarations</text>
<polygon fill="#8dd3c7" stroke="transparent" points="688,-10 688,-30 708,-30 708,-10 688,-10"/>
<text text-anchor="start" x="711.73" y="-15.4" font-family="Times-12" font-size="14.00"> &#160;Module</text>
<polygon fill="#80b1d3" stroke="transparent" points="774,-10 774,-30 794,-30 794,-10 774,-10"/>
<text text-anchor="start" x="797.78" y="-15.4" font-family="Times-12" font-size="14.00"> &#160;Bootstrap</text>
<polygon fill="#fdb462" stroke="transparent" points="871,-10 871,-30 891,-30 891,-10 871,-10"/>
<text text-anchor="start" x="894.67" y="-15.4" font-family="Times-12" font-size="14.00"> &#160;Providers</text>
<polygon fill="#fb8072" stroke="transparent" points="967,-10 967,-30 987,-30 987,-10 967,-10"/>
<text text-anchor="start" x="990.73" y="-15.4" font-family="Times-12" font-size="14.00"> &#160;Exports</text>
<g id="clust1" class="cluster">
<title>cluster_AppModule</title>
<polygon fill="none" stroke="black" stroke-dasharray="1,5" points="8,-70 8,-195 1610,-195 1610,-70 8,-70"/>
</g>
<g id="clust3" class="cluster">
<title>cluster_AppModule_imports</title>
<polygon fill="none" stroke="black" points="16,-78 16,-130 1602,-130 1602,-78 16,-78"/>
</g>
<!-- AuthModule -->
<g id="node1" class="node">
<title>AuthModule</title>
<polygon fill="#8dd3c7" stroke="black" points="1593.55,-122 1590.55,-126 1569.55,-126 1566.55,-122 1506.45,-122 1506.45,-86 1593.55,-86 1593.55,-122"/>
<text text-anchor="middle" x="1550" y="-99.8" font-family="Times,serif" font-size="14.00">AuthModule</text>
</g>
<!-- AppModule -->
<g id="node14" class="node">
<title>AppModule</title>
<polygon fill="#8dd3c7" stroke="black" points="846.66,-187 843.66,-191 822.66,-191 819.66,-187 763.34,-187 763.34,-151 846.66,-151 846.66,-187"/>
<text text-anchor="middle" x="805" y="-164.8" font-family="Times,serif" font-size="14.00">AppModule</text>
</g>
<!-- AuthModule&#45;&gt;AppModule -->
<g id="edge1" class="edge">
<title>AuthModule&#45;&gt;AppModule</title>
<path fill="none" stroke="black" d="M1550,-122.09C1550,-145.13 1550,-182 1550,-182 1550,-182 856.92,-182 856.92,-182"/>
<polygon fill="black" stroke="black" points="856.92,-178.5 846.92,-182 856.92,-185.5 856.92,-178.5"/>
</g>
<!-- CategoryModule -->
<g id="node2" class="node">
<title>CategoryModule</title>
<polygon fill="#8dd3c7" stroke="black" points="1488.37,-122 1485.37,-126 1464.37,-126 1461.37,-122 1377.63,-122 1377.63,-86 1488.37,-86 1488.37,-122"/>
<text text-anchor="middle" x="1433" y="-99.8" font-family="Times,serif" font-size="14.00">CategoryModule</text>
</g>
<!-- CategoryModule&#45;&gt;AppModule -->
<g id="edge2" class="edge">
<title>CategoryModule&#45;&gt;AppModule</title>
<path fill="none" stroke="black" d="M1433,-122.04C1433,-143.66 1433,-177 1433,-177 1433,-177 856.69,-177 856.69,-177"/>
<polygon fill="black" stroke="black" points="856.69,-173.5 846.69,-177 856.69,-180.5 856.69,-173.5"/>
</g>
<!-- CoursesModule -->
<g id="node3" class="node">
<title>CoursesModule</title>
<polygon fill="#8dd3c7" stroke="black" points="1359.15,-122 1356.15,-126 1335.15,-126 1332.15,-122 1254.85,-122 1254.85,-86 1359.15,-86 1359.15,-122"/>
<text text-anchor="middle" x="1307" y="-99.8" font-family="Times,serif" font-size="14.00">CoursesModule</text>
</g>
<!-- CoursesModule&#45;&gt;AppModule -->
<g id="edge3" class="edge">
<title>CoursesModule&#45;&gt;AppModule</title>
<path fill="none" stroke="black" d="M1307,-122.22C1307,-142.37 1307,-172 1307,-172 1307,-172 856.94,-172 856.94,-172"/>
<polygon fill="black" stroke="black" points="856.94,-168.5 846.94,-172 856.94,-175.5 856.94,-168.5"/>
</g>
<!-- DefaultModule -->
<g id="node4" class="node">
<title>DefaultModule</title>
<polygon fill="#8dd3c7" stroke="black" points="1236.53,-122 1233.53,-126 1212.53,-126 1209.53,-122 1135.47,-122 1135.47,-86 1236.53,-86 1236.53,-122"/>
<text text-anchor="middle" x="1186" y="-99.8" font-family="Times,serif" font-size="14.00">DefaultModule</text>
</g>
<!-- DefaultModule&#45;&gt;AppModule -->
<g id="edge4" class="edge">
<title>DefaultModule&#45;&gt;AppModule</title>
<path fill="none" stroke="black" d="M1186,-122.22C1186,-140.83 1186,-167 1186,-167 1186,-167 856.86,-167 856.86,-167"/>
<polygon fill="black" stroke="black" points="856.86,-163.5 846.86,-167 856.86,-170.5 856.86,-163.5"/>
</g>
<!-- EnrollsModule -->
<g id="node5" class="node">
<title>EnrollsModule</title>
<polygon fill="#8dd3c7" stroke="black" points="1116.99,-122 1113.99,-126 1092.99,-126 1089.99,-122 1017.01,-122 1017.01,-86 1116.99,-86 1116.99,-122"/>
<text text-anchor="middle" x="1067" y="-99.8" font-family="Times,serif" font-size="14.00">EnrollsModule</text>
</g>
<!-- EnrollsModule&#45;&gt;AppModule -->
<g id="edge5" class="edge">
<title>EnrollsModule&#45;&gt;AppModule</title>
<path fill="none" stroke="black" d="M1067,-122.03C1067,-139.06 1067,-162 1067,-162 1067,-162 856.8,-162 856.8,-162"/>
<polygon fill="black" stroke="black" points="856.8,-158.5 846.8,-162 856.8,-165.5 856.8,-158.5"/>
</g>
<!-- I18nConfigModule -->
<g id="node6" class="node">
<title>I18nConfigModule</title>
<polygon fill="#8dd3c7" stroke="black" points="999.1,-122 996.1,-126 975.1,-126 972.1,-122 874.9,-122 874.9,-86 999.1,-86 999.1,-122"/>
<text text-anchor="middle" x="937" y="-99.8" font-family="Times,serif" font-size="14.00">I18nConfigModule</text>
</g>
<!-- I18nConfigModule&#45;&gt;AppModule -->
<g id="edge6" class="edge">
<title>I18nConfigModule&#45;&gt;AppModule</title>
<path fill="none" stroke="black" d="M937,-122.24C937,-137.57 937,-157 937,-157 937,-157 856.77,-157 856.77,-157"/>
<polygon fill="black" stroke="black" points="856.77,-153.5 846.77,-157 856.77,-160.5 856.77,-153.5"/>
</g>
<!-- LessonsModule -->
<g id="node7" class="node">
<title>LessonsModule</title>
<polygon fill="#8dd3c7" stroke="black" points="857.15,-122 854.15,-126 833.15,-126 830.15,-122 752.85,-122 752.85,-86 857.15,-86 857.15,-122"/>
<text text-anchor="middle" x="805" y="-99.8" font-family="Times,serif" font-size="14.00">LessonsModule</text>
</g>
<!-- LessonsModule&#45;&gt;AppModule -->
<g id="edge7" class="edge">
<title>LessonsModule&#45;&gt;AppModule</title>
<path fill="none" stroke="black" d="M805,-122.11C805,-122.11 805,-140.99 805,-140.99"/>
<polygon fill="black" stroke="black" points="801.5,-140.99 805,-150.99 808.5,-140.99 801.5,-140.99"/>
</g>
<!-- MailModule -->
<g id="node8" class="node">
<title>MailModule</title>
<polygon fill="#8dd3c7" stroke="black" points="734.99,-122 731.99,-126 710.99,-126 707.99,-122 649.01,-122 649.01,-86 734.99,-86 734.99,-122"/>
<text text-anchor="middle" x="692" y="-99.8" font-family="Times,serif" font-size="14.00">MailModule</text>
</g>
<!-- MailModule&#45;&gt;AppModule -->
<g id="edge8" class="edge">
<title>MailModule&#45;&gt;AppModule</title>
<path fill="none" stroke="black" d="M692,-122.24C692,-137.57 692,-157 692,-157 692,-157 753.24,-157 753.24,-157"/>
<polygon fill="black" stroke="black" points="753.24,-160.5 763.24,-157 753.24,-153.5 753.24,-160.5"/>
</g>
<!-- PrometheusModule -->
<g id="node9" class="node">
<title>PrometheusModule</title>
<polygon fill="#8dd3c7" stroke="black" points="630.65,-122 627.65,-126 606.65,-126 603.65,-122 505.35,-122 505.35,-86 630.65,-86 630.65,-122"/>
<text text-anchor="middle" x="568" y="-99.8" font-family="Times,serif" font-size="14.00">PrometheusModule</text>
</g>
<!-- PrometheusModule&#45;&gt;AppModule -->
<g id="edge9" class="edge">
<title>PrometheusModule&#45;&gt;AppModule</title>
<path fill="none" stroke="black" d="M568,-122.03C568,-139.06 568,-162 568,-162 568,-162 753.17,-162 753.17,-162"/>
<polygon fill="black" stroke="black" points="753.17,-165.5 763.17,-162 753.17,-158.5 753.17,-165.5"/>
</g>
<!-- QuizModule -->
<g id="node10" class="node">
<title>QuizModule</title>
<polygon fill="#8dd3c7" stroke="black" points="487.26,-122 484.26,-126 463.26,-126 460.26,-122 400.74,-122 400.74,-86 487.26,-86 487.26,-122"/>
<text text-anchor="middle" x="444" y="-99.8" font-family="Times,serif" font-size="14.00">QuizModule</text>
</g>
<!-- QuizModule&#45;&gt;AppModule -->
<g id="edge10" class="edge">
<title>QuizModule&#45;&gt;AppModule</title>
<path fill="none" stroke="black" d="M444,-122.22C444,-140.83 444,-167 444,-167 444,-167 753.24,-167 753.24,-167"/>
<polygon fill="black" stroke="black" points="753.24,-170.5 763.24,-167 753.24,-163.5 753.24,-170.5"/>
</g>
<!-- SharedModule -->
<g id="node11" class="node">
<title>SharedModule</title>
<polygon fill="#8dd3c7" stroke="black" points="382.42,-122 379.42,-126 358.42,-126 355.42,-122 283.58,-122 283.58,-86 382.42,-86 382.42,-122"/>
<text text-anchor="middle" x="333" y="-99.8" font-family="Times,serif" font-size="14.00">SharedModule</text>
</g>
<!-- SharedModule&#45;&gt;AppModule -->
<g id="edge11" class="edge">
<title>SharedModule&#45;&gt;AppModule</title>
<path fill="none" stroke="black" d="M333,-122.22C333,-142.37 333,-172 333,-172 333,-172 753.11,-172 753.11,-172"/>
<polygon fill="black" stroke="black" points="753.11,-175.5 763.11,-172 753.11,-168.5 753.11,-175.5"/>
</g>
<!-- UserCategoryModule -->
<g id="node12" class="node">
<title>UserCategoryModule</title>
<polygon fill="#8dd3c7" stroke="black" points="265.79,-122 262.79,-126 241.79,-126 238.79,-122 128.21,-122 128.21,-86 265.79,-86 265.79,-122"/>
<text text-anchor="middle" x="197" y="-99.8" font-family="Times,serif" font-size="14.00">UserCategoryModule</text>
</g>
<!-- UserCategoryModule&#45;&gt;AppModule -->
<g id="edge12" class="edge">
<title>UserCategoryModule&#45;&gt;AppModule</title>
<path fill="none" stroke="black" d="M197,-122.04C197,-143.66 197,-177 197,-177 197,-177 753.21,-177 753.21,-177"/>
<polygon fill="black" stroke="black" points="753.21,-180.5 763.21,-177 753.21,-173.5 753.21,-180.5"/>
</g>
<!-- UserModule -->
<g id="node13" class="node">
<title>UserModule</title>
<polygon fill="#8dd3c7" stroke="black" points="109.98,-122 106.98,-126 85.98,-126 82.98,-122 24.02,-122 24.02,-86 109.98,-86 109.98,-122"/>
<text text-anchor="middle" x="67" y="-99.8" font-family="Times,serif" font-size="14.00">UserModule</text>
</g>
<!-- UserModule&#45;&gt;AppModule -->
<g id="edge13" class="edge">
<title>UserModule&#45;&gt;AppModule</title>
<path fill="none" stroke="black" d="M67,-122.09C67,-145.13 67,-182 67,-182 67,-182 753.21,-182 753.21,-182"/>
<polygon fill="black" stroke="black" points="753.21,-185.5 763.21,-182 753.21,-178.5 753.21,-185.5"/>
</g>
</g>
</svg>
