<?xml version="1.0" encoding="UTF-8" standalone="no"?>
<!DOCTYPE svg PUBLIC "-//W3C//DTD SVG 1.1//EN"
 "http://www.w3.org/Graphics/SVG/1.1/DTD/svg11.dtd">
<!-- Generated by graphviz version 2.47.0 (20210316.0004)
 -->
<!-- Title: dependencies Pages: 1 -->
<svg width="504pt" height="284pt"
 viewBox="0.00 0.00 504.00 284.00" xmlns="http://www.w3.org/2000/svg" xmlns:xlink="http://www.w3.org/1999/xlink">
<g id="graph0" class="graph" transform="scale(1 1) rotate(0) translate(4 280)">
<title>dependencies</title>
<polygon fill="white" stroke="transparent" points="-4,4 -4,-280 500,-280 500,4 -4,4"/>
<text text-anchor="start" x="227.01" y="-42.4" font-family="Times-12" font-weight="bold" font-size="14.00">Legend</text>
<polygon fill="#ffffb3" stroke="transparent" points="14,-10 14,-30 34,-30 34,-10 14,-10"/>
<text text-anchor="start" x="37.63" y="-15.4" font-family="Times-12" font-size="14.00"> &#160;Declarations</text>
<polygon fill="#8dd3c7" stroke="transparent" points="127,-10 127,-30 147,-30 147,-10 127,-10"/>
<text text-anchor="start" x="150.73" y="-15.4" font-family="Times-12" font-size="14.00"> &#160;Module</text>
<polygon fill="#80b1d3" stroke="transparent" points="213,-10 213,-30 233,-30 233,-10 213,-10"/>
<text text-anchor="start" x="236.78" y="-15.4" font-family="Times-12" font-size="14.00"> &#160;Bootstrap</text>
<polygon fill="#fdb462" stroke="transparent" points="310,-10 310,-30 330,-30 330,-10 310,-10"/>
<text text-anchor="start" x="333.67" y="-15.4" font-family="Times-12" font-size="14.00"> &#160;Providers</text>
<polygon fill="#fb8072" stroke="transparent" points="406,-10 406,-30 426,-30 426,-10 406,-10"/>
<text text-anchor="start" x="429.73" y="-15.4" font-family="Times-12" font-size="14.00"> &#160;Exports</text>
<g id="clust1" class="cluster">
<title>cluster_PrometheusModule</title>
<polygon fill="none" stroke="black" stroke-dasharray="1,5" points="34,-70 34,-268 462,-268 462,-70 34,-70"/>
</g>
<g id="clust6" class="cluster">
<title>cluster_PrometheusModule_providers</title>
<polygon fill="none" stroke="black" points="42,-78 42,-130 454,-130 454,-78 42,-78"/>
</g>
<g id="clust4" class="cluster">
<title>cluster_PrometheusModule_exports</title>
<polygon fill="none" stroke="black" points="72,-208 72,-260 387,-260 387,-208 72,-208"/>
</g>
<!-- PrometheusMiddleware  -->
<g id="node1" class="node">
<title>PrometheusMiddleware </title>
<polygon fill="#fb8072" stroke="black" points="378.74,-252 225.26,-252 225.26,-216 378.74,-216 378.74,-252"/>
<text text-anchor="middle" x="302" y="-229.8" font-family="Times,serif" font-size="14.00">PrometheusMiddleware </text>
</g>
<!-- PrometheusService  -->
<g id="node2" class="node">
<title>PrometheusService </title>
<polygon fill="#fb8072" stroke="black" points="207.58,-252 80.42,-252 80.42,-216 207.58,-216 207.58,-252"/>
<text text-anchor="middle" x="144" y="-229.8" font-family="Times,serif" font-size="14.00">PrometheusService </text>
</g>
<!-- PrometheusModule -->
<g id="node3" class="node">
<title>PrometheusModule</title>
<polygon fill="#8dd3c7" stroke="black" points="235.65,-187 232.65,-191 211.65,-191 208.65,-187 110.35,-187 110.35,-151 235.65,-151 235.65,-187"/>
<text text-anchor="middle" x="173" y="-164.8" font-family="Times,serif" font-size="14.00">PrometheusModule</text>
</g>
<!-- PrometheusModule&#45;&gt;PrometheusMiddleware  -->
<g id="edge1" class="edge">
<title>PrometheusModule&#45;&gt;PrometheusMiddleware </title>
<path fill="none" stroke="black" stroke-dasharray="5,2" d="M230.6,-187.11C230.6,-187.11 230.6,-205.99 230.6,-205.99"/>
<polygon fill="black" stroke="black" points="227.1,-205.99 230.6,-215.99 234.1,-205.99 227.1,-205.99"/>
</g>
<!-- PrometheusModule&#45;&gt;PrometheusService  -->
<g id="edge2" class="edge">
<title>PrometheusModule&#45;&gt;PrometheusService </title>
<path fill="none" stroke="black" stroke-dasharray="5,2" d="M158.98,-187.11C158.98,-187.11 158.98,-205.99 158.98,-205.99"/>
<polygon fill="black" stroke="black" points="155.48,-205.99 158.98,-215.99 162.48,-205.99 155.48,-205.99"/>
</g>
<!-- PrometheusMiddleware -->
<g id="node4" class="node">
<title>PrometheusMiddleware</title>
<ellipse fill="#fdb462" stroke="black" cx="343" cy="-104" rx="103.07" ry="18"/>
<text text-anchor="middle" x="343" y="-99.8" font-family="Times,serif" font-size="14.00">PrometheusMiddleware</text>
</g>
<!-- PrometheusMiddleware&#45;&gt;PrometheusModule -->
<g id="edge3" class="edge">
<title>PrometheusMiddleware&#45;&gt;PrometheusModule</title>
<path fill="none" stroke="black" d="M239.66,-104C232.89,-104 228.7,-104 228.7,-104 228.7,-104 228.7,-140.89 228.7,-140.89"/>
<polygon fill="black" stroke="black" points="225.2,-140.89 228.7,-150.89 232.2,-140.89 225.2,-140.89"/>
</g>
<!-- PrometheusService -->
<g id="node5" class="node">
<title>PrometheusService</title>
<ellipse fill="#fdb462" stroke="black" cx="136" cy="-104" rx="85.67" ry="18"/>
<text text-anchor="middle" x="136" y="-99.8" font-family="Times,serif" font-size="14.00">PrometheusService</text>
</g>
<!-- PrometheusService&#45;&gt;PrometheusModule -->
<g id="edge4" class="edge">
<title>PrometheusService&#45;&gt;PrometheusModule</title>
<path fill="none" stroke="black" d="M165.88,-121.08C165.88,-121.08 165.88,-140.9 165.88,-140.9"/>
<polygon fill="black" stroke="black" points="162.38,-140.9 165.88,-150.9 169.38,-140.9 162.38,-140.9"/>
</g>
</g>
</svg>
