<?xml version="1.0" encoding="UTF-8" standalone="no"?>
<!DOCTYPE svg PUBLIC "-//W3C//DTD SVG 1.1//EN"
 "http://www.w3.org/Graphics/SVG/1.1/DTD/svg11.dtd">
<!-- Generated by graphviz version 2.47.0 (20210316.0004)
 -->
<!-- Title: dependencies Pages: 1 -->
<svg width="504pt" height="211pt"
 viewBox="0.00 0.00 504.00 211.00" xmlns="http://www.w3.org/2000/svg" xmlns:xlink="http://www.w3.org/1999/xlink">
<g id="graph0" class="graph" transform="scale(1 1) rotate(0) translate(4 207)">
<title>dependencies</title>
<polygon fill="white" stroke="transparent" points="-4,4 -4,-207 500,-207 500,4 -4,4"/>
<text text-anchor="start" x="227.01" y="-42.4" font-family="Times-12" font-weight="bold" font-size="14.00">Legend</text>
<polygon fill="#ffffb3" stroke="transparent" points="14,-10 14,-30 34,-30 34,-10 14,-10"/>
<text text-anchor="start" x="37.63" y="-15.4" font-family="Times-12" font-size="14.00"> &#160;Declarations</text>
<polygon fill="#8dd3c7" stroke="transparent" points="127,-10 127,-30 147,-30 147,-10 127,-10"/>
<text text-anchor="start" x="150.73" y="-15.4" font-family="Times-12" font-size="14.00"> &#160;Module</text>
<polygon fill="#80b1d3" stroke="transparent" points="213,-10 213,-30 233,-30 233,-10 213,-10"/>
<text text-anchor="start" x="236.78" y="-15.4" font-family="Times-12" font-size="14.00"> &#160;Bootstrap</text>
<polygon fill="#fdb462" stroke="transparent" points="310,-10 310,-30 330,-30 330,-10 310,-10"/>
<text text-anchor="start" x="333.67" y="-15.4" font-family="Times-12" font-size="14.00"> &#160;Providers</text>
<polygon fill="#fb8072" stroke="transparent" points="406,-10 406,-30 426,-30 426,-10 406,-10"/>
<text text-anchor="start" x="429.73" y="-15.4" font-family="Times-12" font-size="14.00"> &#160;Exports</text>
<g id="clust1" class="cluster">
<title>cluster_DefaultModule</title>
<polygon fill="none" stroke="black" stroke-dasharray="1,5" points="77,-70 77,-195 419,-195 419,-70 77,-70"/>
</g>
<g id="clust6" class="cluster">
<title>cluster_DefaultModule_providers</title>
<polygon fill="none" stroke="black" points="85,-78 85,-130 411,-130 411,-78 85,-78"/>
</g>
<!-- DefaultService -->
<g id="node1" class="node">
<title>DefaultService</title>
<ellipse fill="#fdb462" stroke="black" cx="334" cy="-104" rx="68.89" ry="18"/>
<text text-anchor="middle" x="334" y="-99.8" font-family="Times,serif" font-size="14.00">DefaultService</text>
</g>
<!-- DefaultModule -->
<g id="node3" class="node">
<title>DefaultModule</title>
<polygon fill="#8dd3c7" stroke="black" points="302.53,-187 299.53,-191 278.53,-191 275.53,-187 201.47,-187 201.47,-151 302.53,-151 302.53,-187"/>
<text text-anchor="middle" x="252" y="-164.8" font-family="Times,serif" font-size="14.00">DefaultModule</text>
</g>
<!-- DefaultService&#45;&gt;DefaultModule -->
<g id="edge1" class="edge">
<title>DefaultService&#45;&gt;DefaultModule</title>
<path fill="none" stroke="black" d="M283.91,-116.53C283.91,-116.53 283.91,-140.85 283.91,-140.85"/>
<polygon fill="black" stroke="black" points="280.41,-140.85 283.91,-150.85 287.41,-140.85 280.41,-140.85"/>
</g>
<!-- ResponseService -->
<g id="node2" class="node">
<title>ResponseService</title>
<ellipse fill="#fdb462" stroke="black" cx="170" cy="-104" rx="77" ry="18"/>
<text text-anchor="middle" x="170" y="-99.8" font-family="Times,serif" font-size="14.00">ResponseService</text>
</g>
<!-- ResponseService&#45;&gt;DefaultModule -->
<g id="edge2" class="edge">
<title>ResponseService&#45;&gt;DefaultModule</title>
<path fill="none" stroke="black" d="M224.12,-116.84C224.12,-116.84 224.12,-140.52 224.12,-140.52"/>
<polygon fill="black" stroke="black" points="220.62,-140.52 224.12,-150.52 227.62,-140.52 220.62,-140.52"/>
</g>
</g>
</svg>
