<?xml version="1.0" encoding="UTF-8" standalone="no"?>
<!DOCTYPE svg PUBLIC "-//W3C//DTD SVG 1.1//EN"
 "http://www.w3.org/Graphics/SVG/1.1/DTD/svg11.dtd">
<!-- Generated by graphviz version 2.47.0 (20210316.0004)
 -->
<!-- Title: dependencies Pages: 1 -->
<svg width="3706pt" height="371pt"
 viewBox="0.00 0.00 3706.00 371.00" xmlns="http://www.w3.org/2000/svg" xmlns:xlink="http://www.w3.org/1999/xlink">
<g id="graph0" class="graph" transform="scale(1 1) rotate(0) translate(4 367)">
<title>dependencies</title>
<polygon fill="white" stroke="transparent" points="-4,4 -4,-367 3702,-367 3702,4 -4,4"/>
<text text-anchor="start" x="1828.01" y="-42.4" font-family="Times-12" font-weight="bold" font-size="14.00">Legend</text>
<polygon fill="#ffffb3" stroke="transparent" points="1615,-10 1615,-30 1635,-30 1635,-10 1615,-10"/>
<text text-anchor="start" x="1638.63" y="-15.4" font-family="Times-12" font-size="14.00"> &#160;Declarations</text>
<polygon fill="#8dd3c7" stroke="transparent" points="1728,-10 1728,-30 1748,-30 1748,-10 1728,-10"/>
<text text-anchor="start" x="1751.73" y="-15.4" font-family="Times-12" font-size="14.00"> &#160;Module</text>
<polygon fill="#80b1d3" stroke="transparent" points="1814,-10 1814,-30 1834,-30 1834,-10 1814,-10"/>
<text text-anchor="start" x="1837.78" y="-15.4" font-family="Times-12" font-size="14.00"> &#160;Bootstrap</text>
<polygon fill="#fdb462" stroke="transparent" points="1911,-10 1911,-30 1931,-30 1931,-10 1911,-10"/>
<text text-anchor="start" x="1934.67" y="-15.4" font-family="Times-12" font-size="14.00"> &#160;Providers</text>
<polygon fill="#fb8072" stroke="transparent" points="2007,-10 2007,-30 2027,-30 2027,-10 2007,-10"/>
<text text-anchor="start" x="2030.73" y="-15.4" font-family="Times-12" font-size="14.00"> &#160;Exports</text>
<g id="clust1" class="cluster">
<title>cluster_AppModule</title>
<polygon fill="none" stroke="black" stroke-dasharray="1,5" points="1564,-146 1564,-347 2937,-347 2937,-146 1564,-146"/>
</g>
<g id="clust3" class="cluster">
<title>cluster_AppModule_imports</title>
<polygon fill="none" stroke="black" points="1572,-154 1572,-271 2929,-271 2929,-154 1572,-154"/>
</g>
<g id="clust7" class="cluster">
<title>cluster_AuthModule</title>
<polygon fill="none" stroke="black" stroke-dasharray="1,5" points="2961,-70 2961,-138 3690,-138 3690,-70 2961,-70"/>
</g>
<g id="clust10" class="cluster">
<title>cluster_AuthModule_exports</title>
<polygon fill="none" stroke="black" points="3576,-78 3576,-130 3682,-130 3682,-78 3576,-78"/>
</g>
<g id="clust12" class="cluster">
<title>cluster_AuthModule_providers</title>
<polygon fill="none" stroke="black" points="2969,-78 2969,-130 3568,-130 3568,-78 2969,-78"/>
</g>
<g id="clust13" class="cluster">
<title>cluster_CategoryModule</title>
<polygon fill="none" stroke="black" stroke-dasharray="1,5" points="8,-211 8,-279 326,-279 326,-211 8,-211"/>
</g>
<g id="clust16" class="cluster">
<title>cluster_CategoryModule_exports</title>
<polygon fill="none" stroke="black" points="190,-219 190,-271 318,-271 318,-219 190,-219"/>
</g>
<g id="clust18" class="cluster">
<title>cluster_CategoryModule_providers</title>
<polygon fill="none" stroke="black" points="16,-219 16,-271 182,-271 182,-219 16,-219"/>
</g>
<g id="clust19" class="cluster">
<title>cluster_CoursesModule</title>
<polygon fill="none" stroke="black" stroke-dasharray="1,5" points="2945,-287 2945,-355 3249,-355 3249,-287 2945,-287"/>
</g>
<g id="clust22" class="cluster">
<title>cluster_CoursesModule_exports</title>
<polygon fill="none" stroke="black" points="3119,-295 3119,-347 3241,-347 3241,-295 3119,-295"/>
</g>
<g id="clust24" class="cluster">
<title>cluster_CoursesModule_providers</title>
<polygon fill="none" stroke="black" points="2953,-295 2953,-347 3111,-347 3111,-295 2953,-295"/>
</g>
<g id="clust31" class="cluster">
<title>cluster_DefaultModule</title>
<polygon fill="none" stroke="black" stroke-dasharray="1,5" points="2231,-70 2231,-138 2401,-138 2401,-70 2231,-70"/>
</g>
<g id="clust36" class="cluster">
<title>cluster_DefaultModule_providers</title>
<polygon fill="none" stroke="black" points="2239,-78 2239,-130 2393,-130 2393,-78 2239,-78"/>
</g>
<g id="clust37" class="cluster">
<title>cluster_EnrollsModule</title>
<polygon fill="none" stroke="black" stroke-dasharray="1,5" points="334,-211 334,-279 628,-279 628,-211 334,-211"/>
</g>
<g id="clust40" class="cluster">
<title>cluster_EnrollsModule_exports</title>
<polygon fill="none" stroke="black" points="502,-219 502,-271 620,-271 620,-219 502,-219"/>
</g>
<g id="clust42" class="cluster">
<title>cluster_EnrollsModule_providers</title>
<polygon fill="none" stroke="black" points="342,-219 342,-271 494,-271 494,-219 342,-219"/>
</g>
<g id="clust49" class="cluster">
<title>cluster_LessonsModule</title>
<polygon fill="none" stroke="black" stroke-dasharray="1,5" points="2409,-70 2409,-138 2583,-138 2583,-70 2409,-70"/>
</g>
<g id="clust54" class="cluster">
<title>cluster_LessonsModule_providers</title>
<polygon fill="none" stroke="black" points="2417,-78 2417,-130 2575,-130 2575,-78 2417,-78"/>
</g>
<g id="clust55" class="cluster">
<title>cluster_MailModule</title>
<polygon fill="none" stroke="black" stroke-dasharray="1,5" points="636,-211 636,-279 896,-279 896,-211 636,-211"/>
</g>
<g id="clust58" class="cluster">
<title>cluster_MailModule_exports</title>
<polygon fill="none" stroke="black" points="784,-219 784,-271 888,-271 888,-219 784,-219"/>
</g>
<g id="clust60" class="cluster">
<title>cluster_MailModule_providers</title>
<polygon fill="none" stroke="black" points="644,-219 644,-271 776,-271 776,-219 644,-219"/>
</g>
<g id="clust61" class="cluster">
<title>cluster_PrometheusModule</title>
<polygon fill="none" stroke="black" stroke-dasharray="1,5" points="2591,-70 2591,-138 2795,-138 2795,-70 2591,-70"/>
</g>
<g id="clust66" class="cluster">
<title>cluster_PrometheusModule_providers</title>
<polygon fill="none" stroke="black" points="2599,-78 2599,-130 2787,-130 2787,-78 2599,-78"/>
</g>
<g id="clust67" class="cluster">
<title>cluster_QuizModule</title>
<polygon fill="none" stroke="black" stroke-dasharray="1,5" points="2803,-70 2803,-138 2953,-138 2953,-70 2803,-70"/>
</g>
<g id="clust72" class="cluster">
<title>cluster_QuizModule_providers</title>
<polygon fill="none" stroke="black" points="2811,-78 2811,-130 2945,-130 2945,-78 2811,-78"/>
</g>
<g id="clust73" class="cluster">
<title>cluster_SharedModule</title>
<polygon fill="none" stroke="black" stroke-dasharray="1,5" points="1278,-70 1278,-138 2223,-138 2223,-70 1278,-70"/>
</g>
<g id="clust75" class="cluster">
<title>cluster_SharedModule_imports</title>
<polygon fill="none" stroke="black" points="1725,-78 1725,-130 1817,-130 1817,-78 1725,-78"/>
</g>
<g id="clust76" class="cluster">
<title>cluster_SharedModule_exports</title>
<polygon fill="none" stroke="black" points="1286,-78 1286,-130 1717,-130 1717,-78 1286,-78"/>
</g>
<g id="clust78" class="cluster">
<title>cluster_SharedModule_providers</title>
<polygon fill="none" stroke="black" points="1825,-78 1825,-130 2215,-130 2215,-78 1825,-78"/>
</g>
<g id="clust79" class="cluster">
<title>cluster_UserCategoryModule</title>
<polygon fill="none" stroke="black" stroke-dasharray="1,5" points="904,-211 904,-279 1288,-279 1288,-211 904,-211"/>
</g>
<g id="clust82" class="cluster">
<title>cluster_UserCategoryModule_exports</title>
<polygon fill="none" stroke="black" points="1124,-219 1124,-271 1280,-271 1280,-219 1124,-219"/>
</g>
<g id="clust84" class="cluster">
<title>cluster_UserCategoryModule_providers</title>
<polygon fill="none" stroke="black" points="912,-219 912,-271 1116,-271 1116,-219 912,-219"/>
</g>
<g id="clust85" class="cluster">
<title>cluster_UserModule</title>
<polygon fill="none" stroke="black" stroke-dasharray="1,5" points="1296,-211 1296,-279 1556,-279 1556,-211 1296,-211"/>
</g>
<g id="clust88" class="cluster">
<title>cluster_UserModule_exports</title>
<polygon fill="none" stroke="black" points="1444,-219 1444,-271 1548,-271 1548,-219 1444,-219"/>
</g>
<g id="clust90" class="cluster">
<title>cluster_UserModule_providers</title>
<polygon fill="none" stroke="black" points="1304,-219 1304,-271 1436,-271 1436,-219 1304,-219"/>
</g>
<!-- AuthModule -->
<g id="node1" class="node">
<title>AuthModule</title>
<polygon fill="#8dd3c7" stroke="black" points="2920.55,-263 2917.55,-267 2896.55,-267 2893.55,-263 2833.45,-263 2833.45,-227 2920.55,-227 2920.55,-263"/>
<text text-anchor="middle" x="2877" y="-240.8" font-family="Times,serif" font-size="14.00">AuthModule</text>
</g>
<!-- AppModule -->
<g id="node14" class="node">
<title>AppModule</title>
<polygon fill="#8dd3c7" stroke="black" points="2422.66,-339 2419.66,-343 2398.66,-343 2395.66,-339 2339.34,-339 2339.34,-303 2422.66,-303 2422.66,-339"/>
<text text-anchor="middle" x="2381" y="-316.8" font-family="Times,serif" font-size="14.00">AppModule</text>
</g>
<!-- AuthModule&#45;&gt;AppModule -->
<g id="edge1" class="edge">
<title>AuthModule&#45;&gt;AppModule</title>
<path fill="none" stroke="black" d="M2877,-263.01C2877,-289.02 2877,-334 2877,-334 2877,-334 2432.86,-334 2432.86,-334"/>
<polygon fill="black" stroke="black" points="2432.86,-330.5 2422.86,-334 2432.86,-337.5 2432.86,-330.5"/>
</g>
<!-- AuthService  -->
<g id="node15" class="node">
<title>AuthService </title>
<polygon fill="#fb8072" stroke="black" points="3673.98,-122 3584.02,-122 3584.02,-86 3673.98,-86 3673.98,-122"/>
<text text-anchor="middle" x="3629" y="-99.8" font-family="Times,serif" font-size="14.00">AuthService </text>
</g>
<!-- AuthModule&#45;&gt;AuthService  -->
<g id="edge15" class="edge">
<title>AuthModule&#45;&gt;AuthService </title>
<path fill="none" stroke="black" stroke-dasharray="5,2" d="M2920.68,-257C3081.18,-257 3629,-257 3629,-257 3629,-257 3629,-132.15 3629,-132.15"/>
<polygon fill="black" stroke="black" points="3632.5,-132.15 3629,-122.15 3625.5,-132.15 3632.5,-132.15"/>
</g>
<!-- CategoryModule -->
<g id="node2" class="node">
<title>CategoryModule</title>
<polygon fill="#8dd3c7" stroke="black" points="1690.37,-198 1687.37,-202 1666.37,-202 1663.37,-198 1579.63,-198 1579.63,-162 1690.37,-162 1690.37,-198"/>
<text text-anchor="middle" x="1635" y="-175.8" font-family="Times,serif" font-size="14.00">CategoryModule</text>
</g>
<!-- CategoryModule&#45;&gt;AppModule -->
<g id="edge2" class="edge">
<title>CategoryModule&#45;&gt;AppModule</title>
<path fill="none" stroke="black" d="M1635,-198.27C1635,-239.06 1635,-334 1635,-334 1635,-334 2329.29,-334 2329.29,-334"/>
<polygon fill="black" stroke="black" points="2329.29,-337.5 2339.29,-334 2329.29,-330.5 2329.29,-337.5"/>
</g>
<!-- CategoryService  -->
<g id="node20" class="node">
<title>CategoryService </title>
<polygon fill="#fb8072" stroke="black" points="310.29,-263 197.71,-263 197.71,-227 310.29,-227 310.29,-263"/>
<text text-anchor="middle" x="254" y="-240.8" font-family="Times,serif" font-size="14.00">CategoryService </text>
</g>
<!-- CategoryModule&#45;&gt;CategoryService  -->
<g id="edge20" class="edge">
<title>CategoryModule&#45;&gt;CategoryService </title>
<path fill="none" stroke="black" stroke-dasharray="5,2" d="M1579.58,-186C1321.98,-186 254,-186 254,-186 254,-186 254,-216.98 254,-216.98"/>
<polygon fill="black" stroke="black" points="250.5,-216.98 254,-226.98 257.5,-216.98 250.5,-216.98"/>
</g>
<!-- CoursesModule -->
<g id="node3" class="node">
<title>CoursesModule</title>
<polygon fill="#8dd3c7" stroke="black" points="2802.15,-263 2799.15,-267 2778.15,-267 2775.15,-263 2697.85,-263 2697.85,-227 2802.15,-227 2802.15,-263"/>
<text text-anchor="middle" x="2750" y="-240.8" font-family="Times,serif" font-size="14.00">CoursesModule</text>
</g>
<!-- CoursesModule&#45;&gt;AppModule -->
<g id="edge3" class="edge">
<title>CoursesModule&#45;&gt;AppModule</title>
<path fill="none" stroke="black" d="M2697.61,-254C2598.84,-254 2394.94,-254 2394.94,-254 2394.94,-254 2394.94,-292.69 2394.94,-292.69"/>
<polygon fill="black" stroke="black" points="2391.44,-292.69 2394.94,-302.69 2398.44,-292.69 2391.44,-292.69"/>
</g>
<!-- CoursesService  -->
<g id="node22" class="node">
<title>CoursesService </title>
<polygon fill="#fb8072" stroke="black" points="3233.08,-339 3126.92,-339 3126.92,-303 3233.08,-303 3233.08,-339"/>
<text text-anchor="middle" x="3180" y="-316.8" font-family="Times,serif" font-size="14.00">CoursesService </text>
</g>
<!-- CoursesModule&#45;&gt;CoursesService  -->
<g id="edge24" class="edge">
<title>CoursesModule&#45;&gt;CoursesService </title>
<path fill="none" stroke="black" stroke-dasharray="5,2" d="M2732.56,-263.11C2732.56,-272.9 2732.56,-283 2732.56,-283 2732.56,-283 3139.85,-283 3139.85,-283 3139.85,-283 3139.85,-292.89 3139.85,-292.89"/>
<polygon fill="black" stroke="black" points="3136.35,-292.89 3139.85,-302.89 3143.35,-292.89 3136.35,-292.89"/>
</g>
<!-- DefaultModule -->
<g id="node4" class="node">
<title>DefaultModule</title>
<polygon fill="#8dd3c7" stroke="black" points="2672.53,-198 2669.53,-202 2648.53,-202 2645.53,-198 2571.47,-198 2571.47,-162 2672.53,-162 2672.53,-198"/>
<text text-anchor="middle" x="2622" y="-175.8" font-family="Times,serif" font-size="14.00">DefaultModule</text>
</g>
<!-- DefaultModule&#45;&gt;AppModule -->
<g id="edge4" class="edge">
<title>DefaultModule&#45;&gt;AppModule</title>
<path fill="none" stroke="black" d="M2622,-198.17C2622,-235.85 2622,-319 2622,-319 2622,-319 2432.7,-319 2432.7,-319"/>
<polygon fill="black" stroke="black" points="2432.7,-315.5 2422.7,-319 2432.7,-322.5 2432.7,-315.5"/>
</g>
<!-- EnrollsModule -->
<g id="node5" class="node">
<title>EnrollsModule</title>
<polygon fill="#8dd3c7" stroke="black" points="1807.99,-198 1804.99,-202 1783.99,-202 1780.99,-198 1708.01,-198 1708.01,-162 1807.99,-162 1807.99,-198"/>
<text text-anchor="middle" x="1758" y="-175.8" font-family="Times,serif" font-size="14.00">EnrollsModule</text>
</g>
<!-- EnrollsModule&#45;&gt;AppModule -->
<g id="edge5" class="edge">
<title>EnrollsModule&#45;&gt;AppModule</title>
<path fill="none" stroke="black" d="M1783,-198.27C1783,-238.06 1783,-329 1783,-329 1783,-329 2328.95,-329 2328.95,-329"/>
<polygon fill="black" stroke="black" points="2328.95,-332.5 2338.95,-329 2328.95,-325.5 2328.95,-332.5"/>
</g>
<!-- EnrollsService  -->
<g id="node25" class="node">
<title>EnrollsService </title>
<polygon fill="#fb8072" stroke="black" points="611.92,-263 510.08,-263 510.08,-227 611.92,-227 611.92,-263"/>
<text text-anchor="middle" x="561" y="-240.8" font-family="Times,serif" font-size="14.00">EnrollsService </text>
</g>
<!-- EnrollsModule&#45;&gt;EnrollsService  -->
<g id="edge28" class="edge">
<title>EnrollsModule&#45;&gt;EnrollsService </title>
<path fill="none" stroke="black" stroke-dasharray="5,2" d="M1758,-198.17C1758,-202.05 1758,-205 1758,-205 1758,-205 561,-205 561,-205 561,-205 561,-216.87 561,-216.87"/>
<polygon fill="black" stroke="black" points="557.5,-216.87 561,-226.87 564.5,-216.87 557.5,-216.87"/>
</g>
<!-- I18nConfigModule -->
<g id="node6" class="node">
<title>I18nConfigModule</title>
<polygon fill="#8dd3c7" stroke="black" points="2314.1,-198 2311.1,-202 2290.1,-202 2287.1,-198 2189.9,-198 2189.9,-162 2314.1,-162 2314.1,-198"/>
<text text-anchor="middle" x="2252" y="-175.8" font-family="Times,serif" font-size="14.00">I18nConfigModule</text>
</g>
<!-- I18nConfigModule&#45;&gt;AppModule -->
<g id="edge6" class="edge">
<title>I18nConfigModule&#45;&gt;AppModule</title>
<path fill="none" stroke="black" d="M2252,-198.21C2252,-233.77 2252,-309 2252,-309 2252,-309 2329.12,-309 2329.12,-309"/>
<polygon fill="black" stroke="black" points="2329.12,-312.5 2339.12,-309 2329.12,-305.5 2329.12,-312.5"/>
</g>
<!-- LessonsModule -->
<g id="node7" class="node">
<title>LessonsModule</title>
<polygon fill="#8dd3c7" stroke="black" points="2553.15,-198 2550.15,-202 2529.15,-202 2526.15,-198 2448.85,-198 2448.85,-162 2553.15,-162 2553.15,-198"/>
<text text-anchor="middle" x="2501" y="-175.8" font-family="Times,serif" font-size="14.00">LessonsModule</text>
</g>
<!-- LessonsModule&#45;&gt;AppModule -->
<g id="edge7" class="edge">
<title>LessonsModule&#45;&gt;AppModule</title>
<path fill="none" stroke="black" d="M2501,-198.07C2501,-234.65 2501,-314 2501,-314 2501,-314 2432.97,-314 2432.97,-314"/>
<polygon fill="black" stroke="black" points="2432.97,-310.5 2422.97,-314 2432.97,-317.5 2432.97,-310.5"/>
</g>
<!-- MailModule -->
<g id="node8" class="node">
<title>MailModule</title>
<polygon fill="#8dd3c7" stroke="black" points="1911.99,-198 1908.99,-202 1887.99,-202 1884.99,-198 1826.01,-198 1826.01,-162 1911.99,-162 1911.99,-198"/>
<text text-anchor="middle" x="1869" y="-175.8" font-family="Times,serif" font-size="14.00">MailModule</text>
</g>
<!-- MailModule&#45;&gt;AuthModule -->
<g id="edge14" class="edge">
<title>MailModule&#45;&gt;AuthModule</title>
<path fill="none" stroke="black" d="M1877.6,-198.32C1877.6,-206.79 1877.6,-215 1877.6,-215 1877.6,-215 2877.7,-215 2877.7,-215 2877.7,-215 2877.7,-216.86 2877.7,-216.86"/>
<polygon fill="black" stroke="black" points="2874.2,-216.86 2877.7,-226.86 2881.2,-216.86 2874.2,-216.86"/>
</g>
<!-- MailModule&#45;&gt;AppModule -->
<g id="edge8" class="edge">
<title>MailModule&#45;&gt;AppModule</title>
<path fill="none" stroke="black" d="M1894.8,-198.24C1894.8,-236.99 1894.8,-324 1894.8,-324 1894.8,-324 2329.13,-324 2329.13,-324"/>
<polygon fill="black" stroke="black" points="2329.13,-327.5 2339.13,-324 2329.13,-320.5 2329.13,-327.5"/>
</g>
<!-- MailService  -->
<g id="node28" class="node">
<title>MailService </title>
<polygon fill="#fb8072" stroke="black" points="879.92,-263 792.08,-263 792.08,-227 879.92,-227 879.92,-263"/>
<text text-anchor="middle" x="836" y="-240.8" font-family="Times,serif" font-size="14.00">MailService </text>
</g>
<!-- MailModule&#45;&gt;MailService  -->
<g id="edge31" class="edge">
<title>MailModule&#45;&gt;MailService </title>
<path fill="none" stroke="black" stroke-dasharray="5,2" d="M1860.4,-198.03C1860.4,-204.85 1860.4,-211 1860.4,-211 1860.4,-211 836,-211 836,-211 836,-211 836,-216.81 836,-216.81"/>
<polygon fill="black" stroke="black" points="832.5,-216.81 836,-226.81 839.5,-216.81 832.5,-216.81"/>
</g>
<!-- PrometheusModule -->
<g id="node9" class="node">
<title>PrometheusModule</title>
<polygon fill="#8dd3c7" stroke="black" points="2816.65,-198 2813.65,-202 2792.65,-202 2789.65,-198 2691.35,-198 2691.35,-162 2816.65,-162 2816.65,-198"/>
<text text-anchor="middle" x="2754" y="-175.8" font-family="Times,serif" font-size="14.00">PrometheusModule</text>
</g>
<!-- PrometheusModule&#45;&gt;AppModule -->
<g id="edge9" class="edge">
<title>PrometheusModule&#45;&gt;AppModule</title>
<path fill="none" stroke="black" d="M2809.57,-198.24C2809.57,-236.99 2809.57,-324 2809.57,-324 2809.57,-324 2432.87,-324 2432.87,-324"/>
<polygon fill="black" stroke="black" points="2432.87,-320.5 2422.87,-324 2432.87,-327.5 2432.87,-320.5"/>
</g>
<!-- QuizModule -->
<g id="node10" class="node">
<title>QuizModule</title>
<polygon fill="#8dd3c7" stroke="black" points="2921.26,-198 2918.26,-202 2897.26,-202 2894.26,-198 2834.74,-198 2834.74,-162 2921.26,-162 2921.26,-198"/>
<text text-anchor="middle" x="2878" y="-175.8" font-family="Times,serif" font-size="14.00">QuizModule</text>
</g>
<!-- QuizModule&#45;&gt;AppModule -->
<g id="edge10" class="edge">
<title>QuizModule&#45;&gt;AppModule</title>
<path fill="none" stroke="black" d="M2834.32,-180C2829.47,-180 2826.23,-180 2826.23,-180 2826.23,-180 2826.23,-329 2826.23,-329 2826.23,-329 2432.89,-329 2432.89,-329"/>
<polygon fill="black" stroke="black" points="2432.89,-325.5 2422.89,-329 2432.89,-332.5 2432.89,-325.5"/>
</g>
<!-- SharedModule -->
<g id="node11" class="node">
<title>SharedModule</title>
<polygon fill="#8dd3c7" stroke="black" points="2430.42,-198 2427.42,-202 2406.42,-202 2403.42,-198 2331.58,-198 2331.58,-162 2430.42,-162 2430.42,-198"/>
<text text-anchor="middle" x="2381" y="-175.8" font-family="Times,serif" font-size="14.00">SharedModule</text>
</g>
<!-- SharedModule&#45;&gt;AppModule -->
<g id="edge11" class="edge">
<title>SharedModule&#45;&gt;AppModule</title>
<path fill="none" stroke="black" d="M2367.06,-198.14C2367.06,-198.14 2367.06,-292.93 2367.06,-292.93"/>
<polygon fill="black" stroke="black" points="2363.56,-292.92 2367.06,-302.93 2370.56,-292.93 2363.56,-292.92"/>
</g>
<!-- AuthenticateMiddleware  -->
<g id="node33" class="node">
<title>AuthenticateMiddleware </title>
<polygon fill="#fb8072" stroke="black" points="1709.16,-122 1550.84,-122 1550.84,-86 1709.16,-86 1709.16,-122"/>
<text text-anchor="middle" x="1630" y="-99.8" font-family="Times,serif" font-size="14.00">AuthenticateMiddleware </text>
</g>
<!-- SharedModule&#45;&gt;AuthenticateMiddleware  -->
<g id="edge36" class="edge">
<title>SharedModule&#45;&gt;AuthenticateMiddleware </title>
<path fill="none" stroke="black" stroke-dasharray="5,2" d="M2351.72,-161.8C2351.72,-155.97 2351.72,-151 2351.72,-151 2351.72,-151 1699.22,-151 1699.22,-151 1699.22,-151 1699.22,-132.04 1699.22,-132.04"/>
<polygon fill="black" stroke="black" points="1702.72,-132.04 1699.22,-122.04 1695.72,-132.04 1702.72,-132.04"/>
</g>
<!-- PaginateHelper  -->
<g id="node34" class="node">
<title>PaginateHelper </title>
<polygon fill="#fb8072" stroke="black" points="1532.79,-122 1427.21,-122 1427.21,-86 1532.79,-86 1532.79,-122"/>
<text text-anchor="middle" x="1480" y="-99.8" font-family="Times,serif" font-size="14.00">PaginateHelper </text>
</g>
<!-- SharedModule&#45;&gt;PaginateHelper  -->
<g id="edge37" class="edge">
<title>SharedModule&#45;&gt;PaginateHelper </title>
<path fill="none" stroke="black" stroke-dasharray="5,2" d="M2345.08,-161.94C2345.08,-157.51 2345.08,-154 2345.08,-154 2345.08,-154 1492.47,-154 1492.47,-154 1492.47,-154 1492.47,-132.05 1492.47,-132.05"/>
<polygon fill="black" stroke="black" points="1495.97,-132.05 1492.47,-122.05 1488.97,-132.05 1495.97,-132.05"/>
</g>
<!-- ResponseService  -->
<g id="node35" class="node">
<title>ResponseService </title>
<polygon fill="#fb8072" stroke="black" points="1409.63,-122 1294.37,-122 1294.37,-86 1409.63,-86 1409.63,-122"/>
<text text-anchor="middle" x="1352" y="-99.8" font-family="Times,serif" font-size="14.00">ResponseService </text>
</g>
<!-- SharedModule&#45;&gt;ResponseService  -->
<g id="edge38" class="edge">
<title>SharedModule&#45;&gt;ResponseService </title>
<path fill="none" stroke="black" stroke-dasharray="5,2" d="M2338.43,-161.88C2338.43,-159.03 2338.43,-157 2338.43,-157 2338.43,-157 1360.67,-157 1360.67,-157 1360.67,-157 1360.67,-132.24 1360.67,-132.24"/>
<polygon fill="black" stroke="black" points="1364.17,-132.24 1360.67,-122.24 1357.17,-132.24 1364.17,-132.24"/>
</g>
<!-- UserCategoryModule -->
<g id="node12" class="node">
<title>UserCategoryModule</title>
<polygon fill="#8dd3c7" stroke="black" points="2067.79,-198 2064.79,-202 2043.79,-202 2040.79,-198 1930.21,-198 1930.21,-162 2067.79,-162 2067.79,-198"/>
<text text-anchor="middle" x="1999" y="-175.8" font-family="Times,serif" font-size="14.00">UserCategoryModule</text>
</g>
<!-- UserCategoryModule&#45;&gt;AppModule -->
<g id="edge12" class="edge">
<title>UserCategoryModule&#45;&gt;AppModule</title>
<path fill="none" stroke="black" d="M2033.32,-198.17C2033.32,-235.85 2033.32,-319 2033.32,-319 2033.32,-319 2329.06,-319 2329.06,-319"/>
<polygon fill="black" stroke="black" points="2329.06,-322.5 2339.06,-319 2329.06,-315.5 2329.06,-322.5"/>
</g>
<!-- UserCategoryService  -->
<g id="node38" class="node">
<title>UserCategoryService </title>
<polygon fill="#fb8072" stroke="black" points="1271.72,-263 1132.28,-263 1132.28,-227 1271.72,-227 1271.72,-263"/>
<text text-anchor="middle" x="1202" y="-240.8" font-family="Times,serif" font-size="14.00">UserCategoryService </text>
</g>
<!-- UserCategoryModule&#45;&gt;UserCategoryService  -->
<g id="edge42" class="edge">
<title>UserCategoryModule&#45;&gt;UserCategoryService </title>
<path fill="none" stroke="black" stroke-dasharray="5,2" d="M1999,-198.1C1999,-209.09 1999,-221 1999,-221 1999,-221 1202,-221 1202,-221 1202,-221 1202,-221.58 1202,-221.58"/>
<polygon fill="black" stroke="black" points="1198.5,-216.81 1202,-226.81 1205.5,-216.81 1198.5,-216.81"/>
</g>
<!-- UserModule -->
<g id="node13" class="node">
<title>UserModule</title>
<polygon fill="#8dd3c7" stroke="black" points="2171.98,-198 2168.98,-202 2147.98,-202 2144.98,-198 2086.02,-198 2086.02,-162 2171.98,-162 2171.98,-198"/>
<text text-anchor="middle" x="2129" y="-175.8" font-family="Times,serif" font-size="14.00">UserModule</text>
</g>
<!-- UserModule&#45;&gt;CoursesModule -->
<g id="edge23" class="edge">
<title>UserModule&#45;&gt;CoursesModule</title>
<path fill="none" stroke="black" d="M2154.79,-198.11C2154.79,-217.34 2154.79,-245 2154.79,-245 2154.79,-245 2687.7,-245 2687.7,-245"/>
<polygon fill="black" stroke="black" points="2687.7,-248.5 2697.7,-245 2687.7,-241.5 2687.7,-248.5"/>
</g>
<!-- UserModule&#45;&gt;AppModule -->
<g id="edge13" class="edge">
<title>UserModule&#45;&gt;AppModule</title>
<path fill="none" stroke="black" d="M2137.6,-198.07C2137.6,-234.65 2137.6,-314 2137.6,-314 2137.6,-314 2329.16,-314 2329.16,-314"/>
<polygon fill="black" stroke="black" points="2329.16,-317.5 2339.16,-314 2329.16,-310.5 2329.16,-317.5"/>
</g>
<!-- UserService  -->
<g id="node40" class="node">
<title>UserService </title>
<polygon fill="#fb8072" stroke="black" points="1539.9,-263 1452.1,-263 1452.1,-227 1539.9,-227 1539.9,-263"/>
<text text-anchor="middle" x="1496" y="-240.8" font-family="Times,serif" font-size="14.00">UserService </text>
</g>
<!-- UserModule&#45;&gt;UserService  -->
<g id="edge46" class="edge">
<title>UserModule&#45;&gt;UserService </title>
<path fill="none" stroke="black" stroke-dasharray="5,2" d="M2120.4,-198.03C2120.4,-214.4 2120.4,-236 2120.4,-236 2120.4,-236 1549.91,-236 1549.91,-236"/>
<polygon fill="black" stroke="black" points="1549.91,-232.5 1539.91,-236 1549.91,-239.5 1549.91,-232.5"/>
</g>
<!-- AuthService -->
<g id="node16" class="node">
<title>AuthService</title>
<ellipse fill="#fdb462" stroke="black" cx="3208" cy="-104" rx="59.11" ry="18"/>
<text text-anchor="middle" x="3208" y="-99.8" font-family="Times,serif" font-size="14.00">AuthService</text>
</g>
<!-- AuthService&#45;&gt;AuthModule -->
<g id="edge16" class="edge">
<title>AuthService&#45;&gt;AuthModule</title>
<path fill="none" stroke="black" d="M3190.99,-121.37C3190.99,-157.83 3190.99,-239 3190.99,-239 3190.99,-239 2930.66,-239 2930.66,-239"/>
<polygon fill="black" stroke="black" points="2930.66,-235.5 2920.66,-239 2930.66,-242.5 2930.66,-235.5"/>
</g>
<!-- GoogleStrategy -->
<g id="node17" class="node">
<title>GoogleStrategy</title>
<ellipse fill="#fdb462" stroke="black" cx="3357" cy="-104" rx="71.79" ry="18"/>
<text text-anchor="middle" x="3357" y="-99.8" font-family="Times,serif" font-size="14.00">GoogleStrategy</text>
</g>
<!-- GoogleStrategy&#45;&gt;AuthModule -->
<g id="edge17" class="edge">
<title>GoogleStrategy&#45;&gt;AuthModule</title>
<path fill="none" stroke="black" d="M3357,-122.14C3357,-160.23 3357,-245 3357,-245 3357,-245 2930.87,-245 2930.87,-245"/>
<polygon fill="black" stroke="black" points="2930.87,-241.5 2920.87,-245 2930.87,-248.5 2930.87,-241.5"/>
</g>
<!-- JwtStrategy -->
<g id="node18" class="node">
<title>JwtStrategy</title>
<ellipse fill="#fdb462" stroke="black" cx="3503" cy="-104" rx="56.76" ry="18"/>
<text text-anchor="middle" x="3503" y="-99.8" font-family="Times,serif" font-size="14.00">JwtStrategy</text>
</g>
<!-- JwtStrategy&#45;&gt;AuthModule -->
<g id="edge18" class="edge">
<title>JwtStrategy&#45;&gt;AuthModule</title>
<path fill="none" stroke="black" d="M3503,-122.03C3503,-161.28 3503,-251 3503,-251 3503,-251 2931.02,-251 2931.02,-251"/>
<polygon fill="black" stroke="black" points="2931.02,-247.5 2921.02,-251 2931.02,-254.5 2931.02,-247.5"/>
</g>
<!-- ResponseService -->
<g id="node19" class="node">
<title>ResponseService</title>
<ellipse fill="#fdb462" stroke="black" cx="3054" cy="-104" rx="77" ry="18"/>
<text text-anchor="middle" x="3054" y="-99.8" font-family="Times,serif" font-size="14.00">ResponseService</text>
</g>
<!-- ResponseService&#45;&gt;AuthModule -->
<g id="edge19" class="edge">
<title>ResponseService&#45;&gt;AuthModule</title>
<path fill="none" stroke="black" d="M3085.09,-120.6C3085.09,-155.44 3085.09,-233 3085.09,-233 3085.09,-233 2930.62,-233 2930.62,-233"/>
<polygon fill="black" stroke="black" points="2930.62,-229.5 2920.62,-233 2930.62,-236.5 2930.62,-229.5"/>
</g>
<!-- ResponseService&#45;&gt;CategoryModule -->
<g id="edge22" class="edge">
<title>ResponseService&#45;&gt;CategoryModule</title>
<path fill="none" stroke="black" d="M2995.01,-115.97C2995.01,-120.69 2995.01,-125 2995.01,-125 2995.01,-125 1635,-125 1635,-125 1635,-125 1635,-151.99 1635,-151.99"/>
<polygon fill="black" stroke="black" points="1631.5,-151.99 1635,-161.99 1638.5,-151.99 1631.5,-151.99"/>
</g>
<!-- ResponseService&#45;&gt;DefaultModule -->
<g id="edge27" class="edge">
<title>ResponseService&#45;&gt;DefaultModule</title>
<path fill="none" stroke="black" d="M3067.07,-122.04C3067.07,-129.75 3067.07,-137 3067.07,-137 3067.07,-137 2640.09,-137 2640.09,-137 2640.09,-137 2640.09,-151.51 2640.09,-151.51"/>
<polygon fill="black" stroke="black" points="2636.59,-151.51 2640.09,-161.51 2643.59,-151.51 2636.59,-151.51"/>
</g>
<!-- ResponseService&#45;&gt;SharedModule -->
<g id="edge41" class="edge">
<title>ResponseService&#45;&gt;SharedModule</title>
<path fill="none" stroke="black" d="M3049.06,-122.14C3049.06,-128.46 3049.06,-134 3049.06,-134 3049.06,-134 2404.92,-134 2404.92,-134 2404.92,-134 2404.92,-151.82 2404.92,-151.82"/>
<polygon fill="black" stroke="black" points="2401.42,-151.82 2404.92,-161.82 2408.42,-151.82 2401.42,-151.82"/>
</g>
<!-- ResponseService&#45;&gt;UserCategoryModule -->
<g id="edge44" class="edge">
<title>ResponseService&#45;&gt;UserCategoryModule</title>
<path fill="none" stroke="black" d="M3013.03,-119.34C3013.03,-124.04 3013.03,-128 3013.03,-128 3013.03,-128 2056.23,-128 2056.23,-128 2056.23,-128 2056.23,-151.81 2056.23,-151.81"/>
<polygon fill="black" stroke="black" points="2052.73,-151.81 2056.23,-161.81 2059.73,-151.81 2052.73,-151.81"/>
</g>
<!-- ResponseService&#45;&gt;UserModule -->
<g id="edge49" class="edge">
<title>ResponseService&#45;&gt;UserModule</title>
<path fill="none" stroke="black" d="M3031.04,-121.25C3031.04,-126.54 3031.04,-131 3031.04,-131 3031.04,-131 2150.49,-131 2150.49,-131 2150.49,-131 2150.49,-151.75 2150.49,-151.75"/>
<polygon fill="black" stroke="black" points="2146.99,-151.75 2150.49,-161.75 2153.99,-151.75 2146.99,-151.75"/>
</g>
<!-- CategoryService -->
<g id="node21" class="node">
<title>CategoryService</title>
<ellipse fill="#fdb462" stroke="black" cx="99" cy="-245" rx="75.28" ry="18"/>
<text text-anchor="middle" x="99" y="-240.8" font-family="Times,serif" font-size="14.00">CategoryService</text>
</g>
<!-- CategoryService&#45;&gt;CategoryModule -->
<g id="edge21" class="edge">
<title>CategoryService&#45;&gt;CategoryModule</title>
<path fill="none" stroke="black" d="M99,-226.72C99,-205.68 99,-174 99,-174 99,-174 1569.43,-174 1569.43,-174"/>
<polygon fill="black" stroke="black" points="1569.43,-177.5 1579.43,-174 1569.43,-170.5 1569.43,-177.5"/>
</g>
<!-- CoursesService -->
<g id="node23" class="node">
<title>CoursesService</title>
<ellipse fill="#fdb462" stroke="black" cx="3032" cy="-321" rx="71.2" ry="18"/>
<text text-anchor="middle" x="3032" y="-316.8" font-family="Times,serif" font-size="14.00">CoursesService</text>
</g>
<!-- CoursesService&#45;&gt;CoursesModule -->
<g id="edge25" class="edge">
<title>CoursesService&#45;&gt;CoursesModule</title>
<path fill="none" stroke="black" d="M2978.78,-309C2901.53,-309 2767.44,-309 2767.44,-309 2767.44,-309 2767.44,-273.17 2767.44,-273.17"/>
<polygon fill="black" stroke="black" points="2770.94,-273.17 2767.44,-263.17 2763.94,-273.17 2770.94,-273.17"/>
</g>
<!-- DefaultService -->
<g id="node24" class="node">
<title>DefaultService</title>
<ellipse fill="#fdb462" stroke="black" cx="2316" cy="-104" rx="68.89" ry="18"/>
<text text-anchor="middle" x="2316" y="-99.8" font-family="Times,serif" font-size="14.00">DefaultService</text>
</g>
<!-- DefaultService&#45;&gt;DefaultModule -->
<g id="edge26" class="edge">
<title>DefaultService&#45;&gt;DefaultModule</title>
<path fill="none" stroke="black" d="M2378.3,-111.99C2378.3,-122.6 2378.3,-140 2378.3,-140 2378.3,-140 2589.33,-140 2589.33,-140 2589.33,-140 2589.33,-151.87 2589.33,-151.87"/>
<polygon fill="black" stroke="black" points="2585.83,-151.87 2589.33,-161.87 2592.83,-151.87 2585.83,-151.87"/>
</g>
<!-- EnrollsService -->
<g id="node26" class="node">
<title>EnrollsService</title>
<ellipse fill="#fdb462" stroke="black" cx="418" cy="-245" rx="67.77" ry="18"/>
<text text-anchor="middle" x="418" y="-240.8" font-family="Times,serif" font-size="14.00">EnrollsService</text>
</g>
<!-- EnrollsService&#45;&gt;EnrollsModule -->
<g id="edge29" class="edge">
<title>EnrollsService&#45;&gt;EnrollsModule</title>
<path fill="none" stroke="black" d="M418,-226.51C418,-214.86 418,-202 418,-202 418,-202 1733,-202 1733,-202 1733,-202 1733,-201.62 1733,-201.62"/>
<polygon fill="black" stroke="black" points="1736.5,-208.17 1733,-198.17 1729.5,-208.17 1736.5,-208.17"/>
</g>
<!-- LessonsService -->
<g id="node27" class="node">
<title>LessonsService</title>
<ellipse fill="#fdb462" stroke="black" cx="2496" cy="-104" rx="71.2" ry="18"/>
<text text-anchor="middle" x="2496" y="-99.8" font-family="Times,serif" font-size="14.00">LessonsService</text>
</g>
<!-- LessonsService&#45;&gt;LessonsModule -->
<g id="edge30" class="edge">
<title>LessonsService&#45;&gt;LessonsModule</title>
<path fill="none" stroke="black" d="M2501,-122.01C2501,-122.01 2501,-151.85 2501,-151.85"/>
<polygon fill="black" stroke="black" points="2497.5,-151.85 2501,-161.85 2504.5,-151.85 2497.5,-151.85"/>
</g>
<!-- MailService -->
<g id="node29" class="node">
<title>MailService</title>
<ellipse fill="#fdb462" stroke="black" cx="710" cy="-245" rx="58.46" ry="18"/>
<text text-anchor="middle" x="710" y="-240.8" font-family="Times,serif" font-size="14.00">MailService</text>
</g>
<!-- MailService&#45;&gt;MailModule -->
<g id="edge32" class="edge">
<title>MailService&#45;&gt;MailModule</title>
<path fill="none" stroke="black" d="M710,-226.93C710,-217.54 710,-208 710,-208 710,-208 1843.2,-208 1843.2,-208 1843.2,-208 1843.2,-207.02 1843.2,-207.02"/>
<polygon fill="black" stroke="black" points="1846.7,-208.21 1843.2,-198.21 1839.7,-208.21 1846.7,-208.21"/>
</g>
<!-- PrometheusService -->
<g id="node30" class="node">
<title>PrometheusService</title>
<ellipse fill="#fdb462" stroke="black" cx="2693" cy="-104" rx="85.67" ry="18"/>
<text text-anchor="middle" x="2693" y="-99.8" font-family="Times,serif" font-size="14.00">PrometheusService</text>
</g>
<!-- PrometheusService&#45;&gt;PrometheusModule -->
<g id="edge33" class="edge">
<title>PrometheusService&#45;&gt;PrometheusModule</title>
<path fill="none" stroke="black" d="M2734.88,-119.75C2734.88,-119.75 2734.88,-151.87 2734.88,-151.87"/>
<polygon fill="black" stroke="black" points="2731.38,-151.87 2734.88,-161.87 2738.38,-151.87 2731.38,-151.87"/>
</g>
<!-- QuizService -->
<g id="node31" class="node">
<title>QuizService</title>
<ellipse fill="#fdb462" stroke="black" cx="2878" cy="-104" rx="58.53" ry="18"/>
<text text-anchor="middle" x="2878" y="-99.8" font-family="Times,serif" font-size="14.00">QuizService</text>
</g>
<!-- QuizService&#45;&gt;QuizModule -->
<g id="edge34" class="edge">
<title>QuizService&#45;&gt;QuizModule</title>
<path fill="none" stroke="black" d="M2878,-122.01C2878,-122.01 2878,-151.85 2878,-151.85"/>
<polygon fill="black" stroke="black" points="2874.5,-151.85 2878,-161.85 2881.5,-151.85 2874.5,-151.85"/>
</g>
<!-- DbModule -->
<g id="node32" class="node">
<title>DbModule</title>
<polygon fill="#8dd3c7" stroke="black" points="1809.16,-122 1806.16,-126 1785.16,-126 1782.16,-122 1732.84,-122 1732.84,-86 1809.16,-86 1809.16,-122"/>
<text text-anchor="middle" x="1771" y="-99.8" font-family="Times,serif" font-size="14.00">DbModule</text>
</g>
<!-- DbModule&#45;&gt;SharedModule -->
<g id="edge35" class="edge">
<title>DbModule&#45;&gt;SharedModule</title>
<path fill="none" stroke="black" d="M1770.33,-122.15C1770.33,-134.27 1770.33,-148 1770.33,-148 1770.33,-148 2358.37,-148 2358.37,-148 2358.37,-148 2358.37,-151.76 2358.37,-151.76"/>
<polygon fill="black" stroke="black" points="2354.87,-151.76 2358.37,-161.76 2361.87,-151.76 2354.87,-151.76"/>
</g>
<!-- AuthenticateMiddleware -->
<g id="node36" class="node">
<title>AuthenticateMiddleware</title>
<ellipse fill="#fdb462" stroke="black" cx="1940" cy="-104" rx="107.06" ry="18"/>
<text text-anchor="middle" x="1940" y="-99.8" font-family="Times,serif" font-size="14.00">AuthenticateMiddleware</text>
</g>
<!-- AuthenticateMiddleware&#45;&gt;SharedModule -->
<g id="edge39" class="edge">
<title>AuthenticateMiddleware&#45;&gt;SharedModule</title>
<path fill="none" stroke="black" d="M2017.86,-116.52C2017.86,-128.58 2017.86,-145 2017.86,-145 2017.86,-145 2365.01,-145 2365.01,-145 2365.01,-145 2365.01,-151.68 2365.01,-151.68"/>
<polygon fill="black" stroke="black" points="2361.51,-151.68 2365.01,-161.68 2368.51,-151.68 2361.51,-151.68"/>
</g>
<!-- AuthenticateMiddleware&#45;&gt;UserCategoryModule -->
<g id="edge43" class="edge">
<title>AuthenticateMiddleware&#45;&gt;UserCategoryModule</title>
<path fill="none" stroke="black" d="M1959.52,-122.01C1959.52,-122.01 1959.52,-151.85 1959.52,-151.85"/>
<polygon fill="black" stroke="black" points="1956.02,-151.85 1959.52,-161.85 1963.02,-151.85 1956.02,-151.85"/>
</g>
<!-- AuthenticateMiddleware&#45;&gt;UserModule -->
<g id="edge47" class="edge">
<title>AuthenticateMiddleware&#45;&gt;UserModule</title>
<path fill="none" stroke="black" d="M1988.69,-120.2C1988.69,-136.74 1988.69,-160 1988.69,-160 1988.69,-160 2107.51,-160 2107.51,-160 2107.51,-160 2107.51,-160.18 2107.51,-160.18"/>
<polygon fill="black" stroke="black" points="2104.01,-151.85 2107.51,-161.85 2111.01,-151.85 2104.01,-151.85"/>
</g>
<!-- PaginateHelper -->
<g id="node37" class="node">
<title>PaginateHelper</title>
<ellipse fill="#fdb462" stroke="black" cx="2136" cy="-104" rx="70.62" ry="18"/>
<text text-anchor="middle" x="2136" y="-99.8" font-family="Times,serif" font-size="14.00">PaginateHelper</text>
</g>
<!-- PaginateHelper&#45;&gt;SharedModule -->
<g id="edge40" class="edge">
<title>PaginateHelper&#45;&gt;SharedModule</title>
<path fill="none" stroke="black" d="M2198.26,-112.81C2198.26,-124.04 2198.26,-142 2198.26,-142 2198.26,-142 2371.66,-142 2371.66,-142 2371.66,-142 2371.66,-151.89 2371.66,-151.89"/>
<polygon fill="black" stroke="black" points="2368.16,-151.89 2371.66,-161.89 2375.16,-151.89 2368.16,-151.89"/>
</g>
<!-- PaginateHelper&#45;&gt;UserModule -->
<g id="edge48" class="edge">
<title>PaginateHelper&#45;&gt;UserModule</title>
<path fill="none" stroke="black" d="M2129,-122.01C2129,-122.01 2129,-151.85 2129,-151.85"/>
<polygon fill="black" stroke="black" points="2125.5,-151.85 2129,-161.85 2132.5,-151.85 2125.5,-151.85"/>
</g>
<!-- UserCategoryService -->
<g id="node39" class="node">
<title>UserCategoryService</title>
<ellipse fill="#fdb462" stroke="black" cx="1014" cy="-245" rx="93.74" ry="18"/>
<text text-anchor="middle" x="1014" y="-240.8" font-family="Times,serif" font-size="14.00">UserCategoryService</text>
</g>
<!-- UserCategoryService&#45;&gt;UserCategoryModule -->
<g id="edge45" class="edge">
<title>UserCategoryService&#45;&gt;UserCategoryModule</title>
<path fill="none" stroke="black" d="M1014,-226.84C1014,-221.96 1014,-218 1014,-218 1014,-218 1964.68,-218 1964.68,-218 1964.68,-218 1964.68,-208.11 1964.68,-208.11"/>
<polygon fill="black" stroke="black" points="1968.18,-208.11 1964.68,-198.11 1961.18,-208.11 1968.18,-208.11"/>
</g>
<!-- UserService -->
<g id="node41" class="node">
<title>UserService</title>
<ellipse fill="#fdb462" stroke="black" cx="1370" cy="-245" rx="58.44" ry="18"/>
<text text-anchor="middle" x="1370" y="-240.8" font-family="Times,serif" font-size="14.00">UserService</text>
</g>
<!-- UserService&#45;&gt;UserModule -->
<g id="edge50" class="edge">
<title>UserService&#45;&gt;UserModule</title>
<path fill="none" stroke="black" d="M1418.33,-234.5C1418.33,-229.25 1418.33,-224 1418.33,-224 1418.33,-224 2103.21,-224 2103.21,-224 2103.21,-224 2103.21,-208.15 2103.21,-208.15"/>
<polygon fill="black" stroke="black" points="2106.71,-208.15 2103.21,-198.15 2099.71,-208.15 2106.71,-208.15"/>
</g>
</g>
</svg>
