<?xml version="1.0" encoding="UTF-8" standalone="no"?>
<!DOCTYPE svg PUBLIC "-//W3C//DTD SVG 1.1//EN"
 "http://www.w3.org/Graphics/SVG/1.1/DTD/svg11.dtd">
<!-- Generated by graphviz version 2.47.0 (20210316.0004)
 -->
<!-- Title: dependencies Pages: 1 -->
<svg width="4272pt" height="371pt"
 viewBox="0.00 0.00 4272.00 371.00" xmlns="http://www.w3.org/2000/svg" xmlns:xlink="http://www.w3.org/1999/xlink">
<g id="graph0" class="graph" transform="scale(1 1) rotate(0) translate(4 367)">
<title>dependencies</title>
<polygon fill="white" stroke="transparent" points="-4,4 -4,-367 4268,-367 4268,4 -4,4"/>
<text text-anchor="start" x="2111.01" y="-42.4" font-family="Times-12" font-weight="bold" font-size="14.00">Legend</text>
<polygon fill="#ffffb3" stroke="transparent" points="1898,-10 1898,-30 1918,-30 1918,-10 1898,-10"/>
<text text-anchor="start" x="1921.63" y="-15.4" font-family="Times-12" font-size="14.00"> &#160;Declarations</text>
<polygon fill="#8dd3c7" stroke="transparent" points="2011,-10 2011,-30 2031,-30 2031,-10 2011,-10"/>
<text text-anchor="start" x="2034.73" y="-15.4" font-family="Times-12" font-size="14.00"> &#160;Module</text>
<polygon fill="#80b1d3" stroke="transparent" points="2097,-10 2097,-30 2117,-30 2117,-10 2097,-10"/>
<text text-anchor="start" x="2120.78" y="-15.4" font-family="Times-12" font-size="14.00"> &#160;Bootstrap</text>
<polygon fill="#fdb462" stroke="transparent" points="2194,-10 2194,-30 2214,-30 2214,-10 2194,-10"/>
<text text-anchor="start" x="2217.67" y="-15.4" font-family="Times-12" font-size="14.00"> &#160;Providers</text>
<polygon fill="#fb8072" stroke="transparent" points="2290,-10 2290,-30 2310,-30 2310,-10 2290,-10"/>
<text text-anchor="start" x="2313.73" y="-15.4" font-family="Times-12" font-size="14.00"> &#160;Exports</text>
<g id="clust1" class="cluster">
<title>cluster_AppModule</title>
<polygon fill="none" stroke="black" stroke-dasharray="1,5" points="569,-146 569,-347 1941,-347 1941,-146 569,-146"/>
</g>
<g id="clust3" class="cluster">
<title>cluster_AppModule_imports</title>
<polygon fill="none" stroke="black" points="577,-154 577,-271 1933,-271 1933,-154 577,-154"/>
</g>
<g id="clust7" class="cluster">
<title>cluster_AuthModule</title>
<polygon fill="none" stroke="black" stroke-dasharray="1,5" points="8,-70 8,-138 737,-138 737,-70 8,-70"/>
</g>
<g id="clust10" class="cluster">
<title>cluster_AuthModule_exports</title>
<polygon fill="none" stroke="black" points="16,-78 16,-130 122,-130 122,-78 16,-78"/>
</g>
<g id="clust12" class="cluster">
<title>cluster_AuthModule_providers</title>
<polygon fill="none" stroke="black" points="130,-78 130,-130 729,-130 729,-78 130,-78"/>
</g>
<g id="clust13" class="cluster">
<title>cluster_CategoryModule</title>
<polygon fill="none" stroke="black" stroke-dasharray="1,5" points="1949,-211 1949,-279 2267,-279 2267,-211 1949,-211"/>
</g>
<g id="clust16" class="cluster">
<title>cluster_CategoryModule_exports</title>
<polygon fill="none" stroke="black" points="2131,-219 2131,-271 2259,-271 2259,-219 2131,-219"/>
</g>
<g id="clust18" class="cluster">
<title>cluster_CategoryModule_providers</title>
<polygon fill="none" stroke="black" points="1957,-219 1957,-271 2123,-271 2123,-219 1957,-219"/>
</g>
<g id="clust19" class="cluster">
<title>cluster_CoursesModule</title>
<polygon fill="none" stroke="black" stroke-dasharray="1,5" points="1949,-287 1949,-355 2253,-355 2253,-287 1949,-287"/>
</g>
<g id="clust22" class="cluster">
<title>cluster_CoursesModule_exports</title>
<polygon fill="none" stroke="black" points="2123,-295 2123,-347 2245,-347 2245,-295 2123,-295"/>
</g>
<g id="clust24" class="cluster">
<title>cluster_CoursesModule_providers</title>
<polygon fill="none" stroke="black" points="1957,-295 1957,-347 2115,-347 2115,-295 1957,-295"/>
</g>
<g id="clust31" class="cluster">
<title>cluster_DefaultModule</title>
<polygon fill="none" stroke="black" stroke-dasharray="1,5" points="1698,-70 1698,-138 1868,-138 1868,-70 1698,-70"/>
</g>
<g id="clust36" class="cluster">
<title>cluster_DefaultModule_providers</title>
<polygon fill="none" stroke="black" points="1706,-78 1706,-130 1860,-130 1860,-78 1706,-78"/>
</g>
<g id="clust37" class="cluster">
<title>cluster_EnrollsModule</title>
<polygon fill="none" stroke="black" stroke-dasharray="1,5" points="2275,-211 2275,-279 2569,-279 2569,-211 2275,-211"/>
</g>
<g id="clust40" class="cluster">
<title>cluster_EnrollsModule_exports</title>
<polygon fill="none" stroke="black" points="2443,-219 2443,-271 2561,-271 2561,-219 2443,-219"/>
</g>
<g id="clust42" class="cluster">
<title>cluster_EnrollsModule_providers</title>
<polygon fill="none" stroke="black" points="2283,-219 2283,-271 2435,-271 2435,-219 2283,-219"/>
</g>
<g id="clust49" class="cluster">
<title>cluster_LessonsModule</title>
<polygon fill="none" stroke="black" stroke-dasharray="1,5" points="1876,-70 1876,-138 2050,-138 2050,-70 1876,-70"/>
</g>
<g id="clust54" class="cluster">
<title>cluster_LessonsModule_providers</title>
<polygon fill="none" stroke="black" points="1884,-78 1884,-130 2042,-130 2042,-78 1884,-78"/>
</g>
<g id="clust55" class="cluster">
<title>cluster_MailModule</title>
<polygon fill="none" stroke="black" stroke-dasharray="1,5" points="2577,-211 2577,-279 2837,-279 2837,-211 2577,-211"/>
</g>
<g id="clust58" class="cluster">
<title>cluster_MailModule_exports</title>
<polygon fill="none" stroke="black" points="2725,-219 2725,-271 2829,-271 2829,-219 2725,-219"/>
</g>
<g id="clust60" class="cluster">
<title>cluster_MailModule_providers</title>
<polygon fill="none" stroke="black" points="2585,-219 2585,-271 2717,-271 2717,-219 2585,-219"/>
</g>
<g id="clust61" class="cluster">
<title>cluster_PrometheusModule</title>
<polygon fill="none" stroke="black" stroke-dasharray="1,5" points="2845,-211 2845,-279 3596,-279 3596,-211 2845,-211"/>
</g>
<g id="clust64" class="cluster">
<title>cluster_PrometheusModule_exports</title>
<polygon fill="none" stroke="black" points="3273,-219 3273,-271 3588,-271 3588,-219 3273,-219"/>
</g>
<g id="clust66" class="cluster">
<title>cluster_PrometheusModule_providers</title>
<polygon fill="none" stroke="black" points="2853,-219 2853,-271 3265,-271 3265,-219 2853,-219"/>
</g>
<g id="clust67" class="cluster">
<title>cluster_QuizModule</title>
<polygon fill="none" stroke="black" stroke-dasharray="1,5" points="2058,-70 2058,-138 2208,-138 2208,-70 2058,-70"/>
</g>
<g id="clust72" class="cluster">
<title>cluster_QuizModule_providers</title>
<polygon fill="none" stroke="black" points="2066,-78 2066,-130 2200,-130 2200,-78 2066,-78"/>
</g>
<g id="clust73" class="cluster">
<title>cluster_SharedModule</title>
<polygon fill="none" stroke="black" stroke-dasharray="1,5" points="745,-70 745,-138 1690,-138 1690,-70 745,-70"/>
</g>
<g id="clust75" class="cluster">
<title>cluster_SharedModule_imports</title>
<polygon fill="none" stroke="black" points="1590,-78 1590,-130 1682,-130 1682,-78 1590,-78"/>
</g>
<g id="clust76" class="cluster">
<title>cluster_SharedModule_exports</title>
<polygon fill="none" stroke="black" points="1151,-78 1151,-130 1582,-130 1582,-78 1151,-78"/>
</g>
<g id="clust78" class="cluster">
<title>cluster_SharedModule_providers</title>
<polygon fill="none" stroke="black" points="753,-78 753,-130 1143,-130 1143,-78 753,-78"/>
</g>
<g id="clust79" class="cluster">
<title>cluster_UserCategoryModule</title>
<polygon fill="none" stroke="black" stroke-dasharray="1,5" points="3604,-211 3604,-279 3988,-279 3988,-211 3604,-211"/>
</g>
<g id="clust82" class="cluster">
<title>cluster_UserCategoryModule_exports</title>
<polygon fill="none" stroke="black" points="3824,-219 3824,-271 3980,-271 3980,-219 3824,-219"/>
</g>
<g id="clust84" class="cluster">
<title>cluster_UserCategoryModule_providers</title>
<polygon fill="none" stroke="black" points="3612,-219 3612,-271 3816,-271 3816,-219 3612,-219"/>
</g>
<g id="clust85" class="cluster">
<title>cluster_UserModule</title>
<polygon fill="none" stroke="black" stroke-dasharray="1,5" points="3996,-211 3996,-279 4256,-279 4256,-211 3996,-211"/>
</g>
<g id="clust88" class="cluster">
<title>cluster_UserModule_exports</title>
<polygon fill="none" stroke="black" points="4144,-219 4144,-271 4248,-271 4248,-219 4144,-219"/>
</g>
<g id="clust90" class="cluster">
<title>cluster_UserModule_providers</title>
<polygon fill="none" stroke="black" points="4004,-219 4004,-271 4136,-271 4136,-219 4004,-219"/>
</g>
<!-- AuthModule -->
<g id="node1" class="node">
<title>AuthModule</title>
<polygon fill="#8dd3c7" stroke="black" points="672.55,-263 669.55,-267 648.55,-267 645.55,-263 585.45,-263 585.45,-227 672.55,-227 672.55,-263"/>
<text text-anchor="middle" x="629" y="-240.8" font-family="Times,serif" font-size="14.00">AuthModule</text>
</g>
<!-- AppModule -->
<g id="node14" class="node">
<title>AppModule</title>
<polygon fill="#8dd3c7" stroke="black" points="1369.66,-339 1366.66,-343 1345.66,-343 1342.66,-339 1286.34,-339 1286.34,-303 1369.66,-303 1369.66,-339"/>
<text text-anchor="middle" x="1328" y="-316.8" font-family="Times,serif" font-size="14.00">AppModule</text>
</g>
<!-- AuthModule&#45;&gt;AppModule -->
<g id="edge1" class="edge">
<title>AuthModule&#45;&gt;AppModule</title>
<path fill="none" stroke="black" d="M629,-263.01C629,-289.02 629,-334 629,-334 629,-334 1276.11,-334 1276.11,-334"/>
<polygon fill="black" stroke="black" points="1276.11,-337.5 1286.11,-334 1276.11,-330.5 1276.11,-337.5"/>
</g>
<!-- AuthService  -->
<g id="node15" class="node">
<title>AuthService </title>
<polygon fill="#fb8072" stroke="black" points="113.98,-122 24.02,-122 24.02,-86 113.98,-86 113.98,-122"/>
<text text-anchor="middle" x="69" y="-99.8" font-family="Times,serif" font-size="14.00">AuthService </text>
</g>
<!-- AuthModule&#45;&gt;AuthService  -->
<g id="edge15" class="edge">
<title>AuthModule&#45;&gt;AuthService </title>
<path fill="none" stroke="black" stroke-dasharray="5,2" d="M585.06,-257C453.04,-257 69,-257 69,-257 69,-257 69,-132.15 69,-132.15"/>
<polygon fill="black" stroke="black" points="72.5,-132.15 69,-122.15 65.5,-132.15 72.5,-132.15"/>
</g>
<!-- CategoryModule -->
<g id="node2" class="node">
<title>CategoryModule</title>
<polygon fill="#8dd3c7" stroke="black" points="1300.37,-198 1297.37,-202 1276.37,-202 1273.37,-198 1189.63,-198 1189.63,-162 1300.37,-162 1300.37,-198"/>
<text text-anchor="middle" x="1245" y="-175.8" font-family="Times,serif" font-size="14.00">CategoryModule</text>
</g>
<!-- CategoryModule&#45;&gt;AppModule -->
<g id="edge2" class="edge">
<title>CategoryModule&#45;&gt;AppModule</title>
<path fill="none" stroke="black" d="M1294.73,-198.14C1294.73,-198.14 1294.73,-292.93 1294.73,-292.93"/>
<polygon fill="black" stroke="black" points="1291.23,-292.92 1294.73,-302.93 1298.23,-292.93 1291.23,-292.92"/>
</g>
<!-- CategoryService  -->
<g id="node20" class="node">
<title>CategoryService </title>
<polygon fill="#fb8072" stroke="black" points="2251.29,-263 2138.71,-263 2138.71,-227 2251.29,-227 2251.29,-263"/>
<text text-anchor="middle" x="2195" y="-240.8" font-family="Times,serif" font-size="14.00">CategoryService </text>
</g>
<!-- CategoryModule&#45;&gt;CategoryService  -->
<g id="edge20" class="edge">
<title>CategoryModule&#45;&gt;CategoryService </title>
<path fill="none" stroke="black" stroke-dasharray="5,2" d="M1289.02,-198.49C1289.02,-210.14 1289.02,-223 1289.02,-223 1289.02,-223 2165.18,-223 2165.18,-223 2165.18,-223 2165.18,-223.38 2165.18,-223.38"/>
<polygon fill="black" stroke="black" points="2161.68,-216.83 2165.18,-226.83 2168.68,-216.83 2161.68,-216.83"/>
</g>
<!-- CoursesModule -->
<g id="node3" class="node">
<title>CoursesModule</title>
<polygon fill="#8dd3c7" stroke="black" points="1229.15,-263 1226.15,-267 1205.15,-267 1202.15,-263 1124.85,-263 1124.85,-227 1229.15,-227 1229.15,-263"/>
<text text-anchor="middle" x="1177" y="-240.8" font-family="Times,serif" font-size="14.00">CoursesModule</text>
</g>
<!-- CoursesModule&#45;&gt;AppModule -->
<g id="edge3" class="edge">
<title>CoursesModule&#45;&gt;AppModule</title>
<path fill="none" stroke="black" d="M1229.4,-256C1259.69,-256 1291.88,-256 1291.88,-256 1291.88,-256 1291.88,-292.89 1291.88,-292.89"/>
<polygon fill="black" stroke="black" points="1288.38,-292.89 1291.88,-302.89 1295.38,-292.89 1288.38,-292.89"/>
</g>
<!-- CoursesService  -->
<g id="node22" class="node">
<title>CoursesService </title>
<polygon fill="#fb8072" stroke="black" points="2237.08,-339 2130.92,-339 2130.92,-303 2237.08,-303 2237.08,-339"/>
<text text-anchor="middle" x="2184" y="-316.8" font-family="Times,serif" font-size="14.00">CoursesService </text>
</g>
<!-- CoursesModule&#45;&gt;CoursesService  -->
<g id="edge24" class="edge">
<title>CoursesModule&#45;&gt;CoursesService </title>
<path fill="none" stroke="black" stroke-dasharray="5,2" d="M1177,-263.11C1177,-272.9 1177,-283 1177,-283 1177,-283 2134.66,-283 2134.66,-283 2134.66,-283 2134.66,-292.89 2134.66,-292.89"/>
<polygon fill="black" stroke="black" points="2131.16,-292.89 2134.66,-302.89 2138.16,-292.89 2131.16,-292.89"/>
</g>
<!-- DefaultModule -->
<g id="node4" class="node">
<title>DefaultModule</title>
<polygon fill="#8dd3c7" stroke="black" points="802.53,-198 799.53,-202 778.53,-202 775.53,-198 701.47,-198 701.47,-162 802.53,-162 802.53,-198"/>
<text text-anchor="middle" x="752" y="-175.8" font-family="Times,serif" font-size="14.00">DefaultModule</text>
</g>
<!-- DefaultModule&#45;&gt;AppModule -->
<g id="edge4" class="edge">
<title>DefaultModule&#45;&gt;AppModule</title>
<path fill="none" stroke="black" d="M752,-198.24C752,-236.99 752,-324 752,-324 752,-324 1276.11,-324 1276.11,-324"/>
<polygon fill="black" stroke="black" points="1276.11,-327.5 1286.11,-324 1276.11,-320.5 1276.11,-327.5"/>
</g>
<!-- EnrollsModule -->
<g id="node5" class="node">
<title>EnrollsModule</title>
<polygon fill="#8dd3c7" stroke="black" points="1417.99,-198 1414.99,-202 1393.99,-202 1390.99,-198 1318.01,-198 1318.01,-162 1417.99,-162 1417.99,-198"/>
<text text-anchor="middle" x="1368" y="-175.8" font-family="Times,serif" font-size="14.00">EnrollsModule</text>
</g>
<!-- EnrollsModule&#45;&gt;AppModule -->
<g id="edge5" class="edge">
<title>EnrollsModule&#45;&gt;AppModule</title>
<path fill="none" stroke="black" d="M1343.92,-198.14C1343.92,-198.14 1343.92,-292.93 1343.92,-292.93"/>
<polygon fill="black" stroke="black" points="1340.42,-292.92 1343.92,-302.93 1347.42,-292.93 1340.42,-292.92"/>
</g>
<!-- EnrollsService  -->
<g id="node25" class="node">
<title>EnrollsService </title>
<polygon fill="#fb8072" stroke="black" points="2552.92,-263 2451.08,-263 2451.08,-227 2552.92,-227 2552.92,-263"/>
<text text-anchor="middle" x="2502" y="-240.8" font-family="Times,serif" font-size="14.00">EnrollsService </text>
</g>
<!-- EnrollsModule&#45;&gt;EnrollsService  -->
<g id="edge28" class="edge">
<title>EnrollsModule&#45;&gt;EnrollsService </title>
<path fill="none" stroke="black" stroke-dasharray="5,2" d="M1385.88,-198.13C1385.88,-208.31 1385.88,-219 1385.88,-219 1385.88,-219 2502,-219 2502,-219 2502,-219 2502,-219.79 2502,-219.79"/>
<polygon fill="black" stroke="black" points="2498.5,-216.94 2502,-226.94 2505.5,-216.94 2498.5,-216.94"/>
</g>
<!-- I18nConfigModule -->
<g id="node6" class="node">
<title>I18nConfigModule</title>
<polygon fill="#8dd3c7" stroke="black" points="1172.1,-198 1169.1,-202 1148.1,-202 1145.1,-198 1047.9,-198 1047.9,-162 1172.1,-162 1172.1,-198"/>
<text text-anchor="middle" x="1110" y="-175.8" font-family="Times,serif" font-size="14.00">I18nConfigModule</text>
</g>
<!-- I18nConfigModule&#45;&gt;AppModule -->
<g id="edge6" class="edge">
<title>I18nConfigModule&#45;&gt;AppModule</title>
<path fill="none" stroke="black" d="M1086.31,-198.21C1086.31,-233.77 1086.31,-309 1086.31,-309 1086.31,-309 1276.18,-309 1276.18,-309"/>
<polygon fill="black" stroke="black" points="1276.18,-312.5 1286.18,-309 1276.18,-305.5 1276.18,-312.5"/>
</g>
<!-- LessonsModule -->
<g id="node7" class="node">
<title>LessonsModule</title>
<polygon fill="#8dd3c7" stroke="black" points="925.15,-198 922.15,-202 901.15,-202 898.15,-198 820.85,-198 820.85,-162 925.15,-162 925.15,-198"/>
<text text-anchor="middle" x="873" y="-175.8" font-family="Times,serif" font-size="14.00">LessonsModule</text>
</g>
<!-- LessonsModule&#45;&gt;AppModule -->
<g id="edge7" class="edge">
<title>LessonsModule&#45;&gt;AppModule</title>
<path fill="none" stroke="black" d="M873,-198.17C873,-235.85 873,-319 873,-319 873,-319 1276.01,-319 1276.01,-319"/>
<polygon fill="black" stroke="black" points="1276.01,-322.5 1286.01,-319 1276.01,-315.5 1276.01,-322.5"/>
</g>
<!-- MailModule -->
<g id="node8" class="node">
<title>MailModule</title>
<polygon fill="#8dd3c7" stroke="black" points="1521.99,-198 1518.99,-202 1497.99,-202 1494.99,-198 1436.01,-198 1436.01,-162 1521.99,-162 1521.99,-198"/>
<text text-anchor="middle" x="1479" y="-175.8" font-family="Times,serif" font-size="14.00">MailModule</text>
</g>
<!-- MailModule&#45;&gt;AuthModule -->
<g id="edge14" class="edge">
<title>MailModule&#45;&gt;AuthModule</title>
<path fill="none" stroke="black" d="M1453.2,-198.04C1453.2,-210.56 1453.2,-225 1453.2,-225 1453.2,-225 629,-225 629,-225 629,-225 629,-225.18 629,-225.18"/>
<polygon fill="black" stroke="black" points="625.5,-216.85 629,-226.85 632.5,-216.85 625.5,-216.85"/>
</g>
<!-- MailModule&#45;&gt;AppModule -->
<g id="edge8" class="edge">
<title>MailModule&#45;&gt;AppModule</title>
<path fill="none" stroke="black" d="M1504.8,-198.21C1504.8,-235.06 1504.8,-315 1504.8,-315 1504.8,-315 1379.9,-315 1379.9,-315"/>
<polygon fill="black" stroke="black" points="1379.9,-311.5 1369.9,-315 1379.9,-318.5 1379.9,-311.5"/>
</g>
<!-- MailService  -->
<g id="node28" class="node">
<title>MailService </title>
<polygon fill="#fb8072" stroke="black" points="2820.92,-263 2733.08,-263 2733.08,-227 2820.92,-227 2820.92,-263"/>
<text text-anchor="middle" x="2777" y="-240.8" font-family="Times,serif" font-size="14.00">MailService </text>
</g>
<!-- MailModule&#45;&gt;MailService  -->
<g id="edge31" class="edge">
<title>MailModule&#45;&gt;MailService </title>
<path fill="none" stroke="black" stroke-dasharray="5,2" d="M1470.4,-198.19C1470.4,-206.28 1470.4,-214 1470.4,-214 1470.4,-214 2777,-214 2777,-214 2777,-214 2777,-216.97 2777,-216.97"/>
<polygon fill="black" stroke="black" points="2773.5,-216.97 2777,-226.97 2780.5,-216.97 2773.5,-216.97"/>
</g>
<!-- PrometheusModule -->
<g id="node9" class="node">
<title>PrometheusModule</title>
<polygon fill="#8dd3c7" stroke="black" points="1665.65,-198 1662.65,-202 1641.65,-202 1638.65,-198 1540.35,-198 1540.35,-162 1665.65,-162 1665.65,-198"/>
<text text-anchor="middle" x="1603" y="-175.8" font-family="Times,serif" font-size="14.00">PrometheusModule</text>
</g>
<!-- PrometheusModule&#45;&gt;AppModule -->
<g id="edge9" class="edge">
<title>PrometheusModule&#45;&gt;AppModule</title>
<path fill="none" stroke="black" d="M1644.88,-198.14C1644.88,-236.23 1644.88,-321 1644.88,-321 1644.88,-321 1379.75,-321 1379.75,-321"/>
<polygon fill="black" stroke="black" points="1379.75,-317.5 1369.75,-321 1379.75,-324.5 1379.75,-317.5"/>
</g>
<!-- PrometheusMiddleware  -->
<g id="node30" class="node">
<title>PrometheusMiddleware </title>
<polygon fill="#fb8072" stroke="black" points="3434.74,-263 3281.26,-263 3281.26,-227 3434.74,-227 3434.74,-263"/>
<text text-anchor="middle" x="3358" y="-240.8" font-family="Times,serif" font-size="14.00">PrometheusMiddleware </text>
</g>
<!-- PrometheusModule&#45;&gt;PrometheusMiddleware  -->
<g id="edge33" class="edge">
<title>PrometheusModule&#45;&gt;PrometheusMiddleware </title>
<path fill="none" stroke="black" stroke-dasharray="5,2" d="M1561.12,-198.16C1561.12,-203.04 1561.12,-207 1561.12,-207 1561.12,-207 3358,-207 3358,-207 3358,-207 3358,-216.89 3358,-216.89"/>
<polygon fill="black" stroke="black" points="3354.5,-216.89 3358,-226.89 3361.5,-216.89 3354.5,-216.89"/>
</g>
<!-- PrometheusService  -->
<g id="node31" class="node">
<title>PrometheusService </title>
<polygon fill="#fb8072" stroke="black" points="3579.58,-263 3452.42,-263 3452.42,-227 3579.58,-227 3579.58,-263"/>
<text text-anchor="middle" x="3516" y="-240.8" font-family="Times,serif" font-size="14.00">PrometheusService </text>
</g>
<!-- PrometheusModule&#45;&gt;PrometheusService  -->
<g id="edge34" class="edge">
<title>PrometheusModule&#45;&gt;PrometheusService </title>
<path fill="none" stroke="black" stroke-dasharray="5,2" d="M1582.06,-198.17C1582.06,-202.05 1582.06,-205 1582.06,-205 1582.06,-205 3516,-205 3516,-205 3516,-205 3516,-216.87 3516,-216.87"/>
<polygon fill="black" stroke="black" points="3512.5,-216.87 3516,-226.87 3519.5,-216.87 3512.5,-216.87"/>
</g>
<!-- QuizModule -->
<g id="node10" class="node">
<title>QuizModule</title>
<polygon fill="#8dd3c7" stroke="black" points="1030.26,-198 1027.26,-202 1006.26,-202 1003.26,-198 943.74,-198 943.74,-162 1030.26,-162 1030.26,-198"/>
<text text-anchor="middle" x="987" y="-175.8" font-family="Times,serif" font-size="14.00">QuizModule</text>
</g>
<!-- QuizModule&#45;&gt;AppModule -->
<g id="edge10" class="edge">
<title>QuizModule&#45;&gt;AppModule</title>
<path fill="none" stroke="black" d="M987,-198.07C987,-234.65 987,-314 987,-314 987,-314 1276.19,-314 1276.19,-314"/>
<polygon fill="black" stroke="black" points="1276.19,-317.5 1286.19,-314 1276.19,-310.5 1276.19,-317.5"/>
</g>
<!-- SharedModule -->
<g id="node11" class="node">
<title>SharedModule</title>
<polygon fill="#8dd3c7" stroke="black" points="683.42,-198 680.42,-202 659.42,-202 656.42,-198 584.58,-198 584.58,-162 683.42,-162 683.42,-198"/>
<text text-anchor="middle" x="634" y="-175.8" font-family="Times,serif" font-size="14.00">SharedModule</text>
</g>
<!-- SharedModule&#45;&gt;AppModule -->
<g id="edge11" class="edge">
<title>SharedModule&#45;&gt;AppModule</title>
<path fill="none" stroke="black" d="M677.99,-198.27C677.99,-238.06 677.99,-329 677.99,-329 677.99,-329 1275.85,-329 1275.85,-329"/>
<polygon fill="black" stroke="black" points="1275.85,-332.5 1285.85,-329 1275.85,-325.5 1275.85,-332.5"/>
</g>
<!-- AuthenticateMiddleware  -->
<g id="node36" class="node">
<title>AuthenticateMiddleware </title>
<polygon fill="#fb8072" stroke="black" points="1574.16,-122 1415.84,-122 1415.84,-86 1574.16,-86 1574.16,-122"/>
<text text-anchor="middle" x="1495" y="-99.8" font-family="Times,serif" font-size="14.00">AuthenticateMiddleware </text>
</g>
<!-- SharedModule&#45;&gt;AuthenticateMiddleware  -->
<g id="edge39" class="edge">
<title>SharedModule&#45;&gt;AuthenticateMiddleware </title>
<path fill="none" stroke="black" stroke-dasharray="5,2" d="M634,-161.86C634,-155.54 634,-150 634,-150 634,-150 1427,-150 1427,-150 1427,-150 1427,-132.18 1427,-132.18"/>
<polygon fill="black" stroke="black" points="1430.5,-132.18 1427,-122.18 1423.5,-132.18 1430.5,-132.18"/>
</g>
<!-- PaginateHelper  -->
<g id="node37" class="node">
<title>PaginateHelper </title>
<polygon fill="#fb8072" stroke="black" points="1397.79,-122 1292.21,-122 1292.21,-86 1397.79,-86 1397.79,-122"/>
<text text-anchor="middle" x="1345" y="-99.8" font-family="Times,serif" font-size="14.00">PaginateHelper </text>
</g>
<!-- SharedModule&#45;&gt;PaginateHelper  -->
<g id="edge40" class="edge">
<title>SharedModule&#45;&gt;PaginateHelper </title>
<path fill="none" stroke="black" stroke-dasharray="5,2" d="M621.7,-161.96C621.7,-154.25 621.7,-147 621.7,-147 621.7,-147 1296.27,-147 1296.27,-147 1296.27,-147 1296.27,-132.49 1296.27,-132.49"/>
<polygon fill="black" stroke="black" points="1299.77,-132.49 1296.27,-122.49 1292.77,-132.49 1299.77,-132.49"/>
</g>
<!-- ResponseService  -->
<g id="node38" class="node">
<title>ResponseService </title>
<polygon fill="#fb8072" stroke="black" points="1274.63,-122 1159.37,-122 1159.37,-86 1274.63,-86 1274.63,-122"/>
<text text-anchor="middle" x="1217" y="-99.8" font-family="Times,serif" font-size="14.00">ResponseService </text>
</g>
<!-- SharedModule&#45;&gt;ResponseService  -->
<g id="edge41" class="edge">
<title>SharedModule&#45;&gt;ResponseService </title>
<path fill="none" stroke="black" stroke-dasharray="5,2" d="M609.39,-161.68C609.39,-153.21 609.39,-145 609.39,-145 609.39,-145 1165.74,-145 1165.74,-145 1165.74,-145 1165.74,-132.1 1165.74,-132.1"/>
<polygon fill="black" stroke="black" points="1169.24,-132.1 1165.74,-122.1 1162.24,-132.1 1169.24,-132.1"/>
</g>
<!-- UserCategoryModule -->
<g id="node12" class="node">
<title>UserCategoryModule</title>
<polygon fill="#8dd3c7" stroke="black" points="1820.79,-198 1817.79,-202 1796.79,-202 1793.79,-198 1683.21,-198 1683.21,-162 1820.79,-162 1820.79,-198"/>
<text text-anchor="middle" x="1752" y="-175.8" font-family="Times,serif" font-size="14.00">UserCategoryModule</text>
</g>
<!-- UserCategoryModule&#45;&gt;AppModule -->
<g id="edge12" class="edge">
<title>UserCategoryModule&#45;&gt;AppModule</title>
<path fill="none" stroke="black" d="M1786.32,-198.03C1786.32,-237.28 1786.32,-327 1786.32,-327 1786.32,-327 1379.89,-327 1379.89,-327"/>
<polygon fill="black" stroke="black" points="1379.89,-323.5 1369.89,-327 1379.89,-330.5 1379.89,-323.5"/>
</g>
<!-- UserCategoryService  -->
<g id="node41" class="node">
<title>UserCategoryService </title>
<polygon fill="#fb8072" stroke="black" points="3971.72,-263 3832.28,-263 3832.28,-227 3971.72,-227 3971.72,-263"/>
<text text-anchor="middle" x="3902" y="-240.8" font-family="Times,serif" font-size="14.00">UserCategoryService </text>
</g>
<!-- UserCategoryModule&#45;&gt;UserCategoryService  -->
<g id="edge45" class="edge">
<title>UserCategoryModule&#45;&gt;UserCategoryService </title>
<path fill="none" stroke="black" stroke-dasharray="5,2" d="M1717.68,-198.08C1717.68,-199.85 1717.68,-201 1717.68,-201 1717.68,-201 3902,-201 3902,-201 3902,-201 3902,-216.85 3902,-216.85"/>
<polygon fill="black" stroke="black" points="3898.5,-216.85 3902,-226.85 3905.5,-216.85 3898.5,-216.85"/>
</g>
<!-- UserModule -->
<g id="node13" class="node">
<title>UserModule</title>
<polygon fill="#8dd3c7" stroke="black" points="1924.98,-198 1921.98,-202 1900.98,-202 1897.98,-198 1839.02,-198 1839.02,-162 1924.98,-162 1924.98,-198"/>
<text text-anchor="middle" x="1882" y="-175.8" font-family="Times,serif" font-size="14.00">UserModule</text>
</g>
<!-- UserModule&#45;&gt;CoursesModule -->
<g id="edge23" class="edge">
<title>UserModule&#45;&gt;CoursesModule</title>
<path fill="none" stroke="black" d="M1867.67,-198.27C1867.67,-216.56 1867.67,-242 1867.67,-242 1867.67,-242 1239.2,-242 1239.2,-242"/>
<polygon fill="black" stroke="black" points="1239.2,-238.5 1229.2,-242 1239.2,-245.5 1239.2,-238.5"/>
</g>
<!-- UserModule&#45;&gt;AppModule -->
<g id="edge13" class="edge">
<title>UserModule&#45;&gt;AppModule</title>
<path fill="none" stroke="black" d="M1896.33,-198.15C1896.33,-238.68 1896.33,-333 1896.33,-333 1896.33,-333 1379.79,-333 1379.79,-333"/>
<polygon fill="black" stroke="black" points="1379.79,-329.5 1369.79,-333 1379.79,-336.5 1379.79,-329.5"/>
</g>
<!-- UserService  -->
<g id="node43" class="node">
<title>UserService </title>
<polygon fill="#fb8072" stroke="black" points="4239.9,-263 4152.1,-263 4152.1,-227 4239.9,-227 4239.9,-263"/>
<text text-anchor="middle" x="4196" y="-240.8" font-family="Times,serif" font-size="14.00">UserService </text>
</g>
<!-- UserModule&#45;&gt;UserService  -->
<g id="edge49" class="edge">
<title>UserModule&#45;&gt;UserService </title>
<path fill="none" stroke="black" stroke-dasharray="5,2" d="M1925.14,-174C2241.92,-174 4196,-174 4196,-174 4196,-174 4196,-216.72 4196,-216.72"/>
<polygon fill="black" stroke="black" points="4192.5,-216.72 4196,-226.72 4199.5,-216.72 4192.5,-216.72"/>
</g>
<!-- AuthService -->
<g id="node16" class="node">
<title>AuthService</title>
<ellipse fill="#fdb462" stroke="black" cx="197" cy="-104" rx="59.11" ry="18"/>
<text text-anchor="middle" x="197" y="-99.8" font-family="Times,serif" font-size="14.00">AuthService</text>
</g>
<!-- AuthService&#45;&gt;AuthModule -->
<g id="edge16" class="edge">
<title>AuthService&#45;&gt;AuthModule</title>
<path fill="none" stroke="black" d="M197,-122.03C197,-161.28 197,-251 197,-251 197,-251 575.2,-251 575.2,-251"/>
<polygon fill="black" stroke="black" points="575.2,-254.5 585.2,-251 575.2,-247.5 575.2,-254.5"/>
</g>
<!-- GoogleStrategy -->
<g id="node17" class="node">
<title>GoogleStrategy</title>
<ellipse fill="#fdb462" stroke="black" cx="346" cy="-104" rx="71.79" ry="18"/>
<text text-anchor="middle" x="346" y="-99.8" font-family="Times,serif" font-size="14.00">GoogleStrategy</text>
</g>
<!-- GoogleStrategy&#45;&gt;AuthModule -->
<g id="edge17" class="edge">
<title>GoogleStrategy&#45;&gt;AuthModule</title>
<path fill="none" stroke="black" d="M346,-122.14C346,-160.23 346,-245 346,-245 346,-245 575.4,-245 575.4,-245"/>
<polygon fill="black" stroke="black" points="575.4,-248.5 585.4,-245 575.4,-241.5 575.4,-248.5"/>
</g>
<!-- JwtStrategy -->
<g id="node18" class="node">
<title>JwtStrategy</title>
<ellipse fill="#fdb462" stroke="black" cx="492" cy="-104" rx="56.76" ry="18"/>
<text text-anchor="middle" x="492" y="-99.8" font-family="Times,serif" font-size="14.00">JwtStrategy</text>
</g>
<!-- JwtStrategy&#45;&gt;AuthModule -->
<g id="edge18" class="edge">
<title>JwtStrategy&#45;&gt;AuthModule</title>
<path fill="none" stroke="black" d="M492,-122.21C492,-159.06 492,-239 492,-239 492,-239 575.28,-239 575.28,-239"/>
<polygon fill="black" stroke="black" points="575.28,-242.5 585.28,-239 575.28,-235.5 575.28,-242.5"/>
</g>
<!-- ResponseService -->
<g id="node19" class="node">
<title>ResponseService</title>
<ellipse fill="#fdb462" stroke="black" cx="644" cy="-104" rx="77" ry="18"/>
<text text-anchor="middle" x="644" y="-99.8" font-family="Times,serif" font-size="14.00">ResponseService</text>
</g>
<!-- ResponseService&#45;&gt;AuthModule -->
<g id="edge19" class="edge">
<title>ResponseService&#45;&gt;AuthModule</title>
<path fill="none" stroke="black" d="M575.89,-112.46C575.89,-141.16 575.89,-233 575.89,-233 575.89,-233 576.82,-233 576.82,-233"/>
<polygon fill="black" stroke="black" points="575.14,-236.5 585.14,-233 575.14,-229.5 575.14,-236.5"/>
</g>
<!-- ResponseService&#45;&gt;CategoryModule -->
<g id="edge22" class="edge">
<title>ResponseService&#45;&gt;CategoryModule</title>
<path fill="none" stroke="black" d="M711.12,-113.02C711.12,-122.79 711.12,-137 711.12,-137 711.12,-137 1232.07,-137 1232.07,-137 1232.07,-137 1232.07,-151.51 1232.07,-151.51"/>
<polygon fill="black" stroke="black" points="1228.57,-151.51 1232.07,-161.51 1235.57,-151.51 1228.57,-151.51"/>
</g>
<!-- ResponseService&#45;&gt;DefaultModule -->
<g id="edge27" class="edge">
<title>ResponseService&#45;&gt;DefaultModule</title>
<path fill="none" stroke="black" d="M706.18,-114.89C706.18,-114.89 706.18,-151.79 706.18,-151.79"/>
<polygon fill="black" stroke="black" points="702.68,-151.79 706.18,-161.79 709.68,-151.79 702.68,-151.79"/>
</g>
<!-- ResponseService&#45;&gt;SharedModule -->
<g id="edge44" class="edge">
<title>ResponseService&#45;&gt;SharedModule</title>
<path fill="none" stroke="black" d="M597.09,-118.3C597.09,-118.3 597.09,-151.73 597.09,-151.73"/>
<polygon fill="black" stroke="black" points="593.59,-151.73 597.09,-161.73 600.59,-151.73 593.59,-151.73"/>
</g>
<!-- ResponseService&#45;&gt;UserCategoryModule -->
<g id="edge47" class="edge">
<title>ResponseService&#45;&gt;UserCategoryModule</title>
<path fill="none" stroke="black" d="M716.06,-110.57C716.06,-119.67 716.06,-135 716.06,-135 716.06,-135 1693.59,-135 1693.59,-135 1693.59,-135 1693.59,-151.96 1693.59,-151.96"/>
<polygon fill="black" stroke="black" points="1690.09,-151.96 1693.59,-161.96 1697.09,-151.96 1690.09,-151.96"/>
</g>
<!-- ResponseService&#45;&gt;UserModule -->
<g id="edge52" class="edge">
<title>ResponseService&#45;&gt;UserModule</title>
<path fill="none" stroke="black" d="M692.22,-118.22C692.22,-124.29 692.22,-130 692.22,-130 692.22,-130 1842.25,-130 1842.25,-130 1842.25,-130 1842.25,-151.95 1842.25,-151.95"/>
<polygon fill="black" stroke="black" points="1838.75,-151.95 1842.25,-161.95 1845.75,-151.95 1838.75,-151.95"/>
</g>
<!-- CategoryService -->
<g id="node21" class="node">
<title>CategoryService</title>
<ellipse fill="#fdb462" stroke="black" cx="2040" cy="-245" rx="75.28" ry="18"/>
<text text-anchor="middle" x="2040" y="-240.8" font-family="Times,serif" font-size="14.00">CategoryService</text>
</g>
<!-- CategoryService&#45;&gt;CategoryModule -->
<g id="edge21" class="edge">
<title>CategoryService&#45;&gt;CategoryModule</title>
<path fill="none" stroke="black" d="M1977.02,-235C1797.76,-235 1297.58,-235 1297.58,-235 1297.58,-235 1297.58,-208.01 1297.58,-208.01"/>
<polygon fill="black" stroke="black" points="1301.08,-208.01 1297.58,-198.01 1294.08,-208.01 1301.08,-208.01"/>
</g>
<!-- CoursesService -->
<g id="node23" class="node">
<title>CoursesService</title>
<ellipse fill="#fdb462" stroke="black" cx="2036" cy="-321" rx="71.2" ry="18"/>
<text text-anchor="middle" x="2036" y="-316.8" font-family="Times,serif" font-size="14.00">CoursesService</text>
</g>
<!-- CoursesService&#45;&gt;CoursesModule -->
<g id="edge25" class="edge">
<title>CoursesService&#45;&gt;CoursesModule</title>
<path fill="none" stroke="black" d="M1982.95,-309C1962.88,-309 1944.8,-309 1944.8,-309 1944.8,-309 1944.8,-249 1944.8,-249 1944.8,-249 1239.17,-249 1239.17,-249"/>
<polygon fill="black" stroke="black" points="1239.17,-245.5 1229.17,-249 1239.17,-252.5 1239.17,-245.5"/>
</g>
<!-- DefaultService -->
<g id="node24" class="node">
<title>DefaultService</title>
<ellipse fill="#fdb462" stroke="black" cx="1783" cy="-104" rx="68.89" ry="18"/>
<text text-anchor="middle" x="1783" y="-99.8" font-family="Times,serif" font-size="14.00">DefaultService</text>
</g>
<!-- DefaultService&#45;&gt;DefaultModule -->
<g id="edge26" class="edge">
<title>DefaultService&#45;&gt;DefaultModule</title>
<path fill="none" stroke="black" d="M1767.35,-121.55C1767.35,-136.3 1767.35,-155 1767.35,-155 1767.35,-155 788.83,-155 788.83,-155 788.83,-155 788.83,-155.68 788.83,-155.68"/>
<polygon fill="black" stroke="black" points="785.33,-151.83 788.83,-161.83 792.33,-151.83 785.33,-151.83"/>
</g>
<!-- EnrollsService -->
<g id="node26" class="node">
<title>EnrollsService</title>
<ellipse fill="#fdb462" stroke="black" cx="2359" cy="-245" rx="67.77" ry="18"/>
<text text-anchor="middle" x="2359" y="-240.8" font-family="Times,serif" font-size="14.00">EnrollsService</text>
</g>
<!-- EnrollsService&#45;&gt;EnrollsModule -->
<g id="edge29" class="edge">
<title>EnrollsService&#45;&gt;EnrollsModule</title>
<path fill="none" stroke="black" d="M2359,-226.81C2359,-223.46 2359,-221 2359,-221 2359,-221 1401.94,-221 1401.94,-221 1401.94,-221 1401.94,-208.1 1401.94,-208.1"/>
<polygon fill="black" stroke="black" points="1405.44,-208.1 1401.94,-198.1 1398.44,-208.1 1405.44,-208.1"/>
</g>
<!-- LessonsService -->
<g id="node27" class="node">
<title>LessonsService</title>
<ellipse fill="#fdb462" stroke="black" cx="1963" cy="-104" rx="71.2" ry="18"/>
<text text-anchor="middle" x="1963" y="-99.8" font-family="Times,serif" font-size="14.00">LessonsService</text>
</g>
<!-- LessonsService&#45;&gt;LessonsModule -->
<g id="edge30" class="edge">
<title>LessonsService&#45;&gt;LessonsModule</title>
<path fill="none" stroke="black" d="M1908.44,-115.76C1908.44,-131.38 1908.44,-157 1908.44,-157 1908.44,-157 873,-157 873,-157 873,-157 873,-157.49 873,-157.49"/>
<polygon fill="black" stroke="black" points="869.5,-151.88 873,-161.88 876.5,-151.88 869.5,-151.88"/>
</g>
<!-- MailService -->
<g id="node29" class="node">
<title>MailService</title>
<ellipse fill="#fdb462" stroke="black" cx="2651" cy="-245" rx="58.46" ry="18"/>
<text text-anchor="middle" x="2651" y="-240.8" font-family="Times,serif" font-size="14.00">MailService</text>
</g>
<!-- MailService&#45;&gt;MailModule -->
<g id="edge32" class="edge">
<title>MailService&#45;&gt;MailModule</title>
<path fill="none" stroke="black" d="M2651,-226.8C2651,-220.97 2651,-216 2651,-216 2651,-216 1487.6,-216 1487.6,-216 1487.6,-216 1487.6,-208.42 1487.6,-208.42"/>
<polygon fill="black" stroke="black" points="1491.1,-208.42 1487.6,-198.42 1484.1,-208.42 1491.1,-208.42"/>
</g>
<!-- PrometheusMiddleware -->
<g id="node32" class="node">
<title>PrometheusMiddleware</title>
<ellipse fill="#fdb462" stroke="black" cx="2964" cy="-245" rx="103.07" ry="18"/>
<text text-anchor="middle" x="2964" y="-240.8" font-family="Times,serif" font-size="14.00">PrometheusMiddleware</text>
</g>
<!-- PrometheusMiddleware&#45;&gt;PrometheusModule -->
<g id="edge35" class="edge">
<title>PrometheusMiddleware&#45;&gt;PrometheusModule</title>
<path fill="none" stroke="black" d="M2964,-226.96C2964,-219.25 2964,-212 2964,-212 2964,-212 1603,-212 1603,-212 1603,-212 1603,-208.24 1603,-208.24"/>
<polygon fill="black" stroke="black" points="1606.5,-208.24 1603,-198.24 1599.5,-208.24 1606.5,-208.24"/>
</g>
<!-- PrometheusService -->
<g id="node33" class="node">
<title>PrometheusService</title>
<ellipse fill="#fdb462" stroke="black" cx="3171" cy="-245" rx="85.67" ry="18"/>
<text text-anchor="middle" x="3171" y="-240.8" font-family="Times,serif" font-size="14.00">PrometheusService</text>
</g>
<!-- PrometheusService&#45;&gt;PrometheusModule -->
<g id="edge36" class="edge">
<title>PrometheusService&#45;&gt;PrometheusModule</title>
<path fill="none" stroke="black" d="M3171,-226.68C3171,-218.21 3171,-210 3171,-210 3171,-210 1623.94,-210 1623.94,-210 1623.94,-210 1623.94,-208.14 1623.94,-208.14"/>
<polygon fill="black" stroke="black" points="1627.44,-208.14 1623.94,-198.14 1620.44,-208.14 1627.44,-208.14"/>
</g>
<!-- QuizService -->
<g id="node34" class="node">
<title>QuizService</title>
<ellipse fill="#fdb462" stroke="black" cx="2133" cy="-104" rx="58.53" ry="18"/>
<text text-anchor="middle" x="2133" y="-99.8" font-family="Times,serif" font-size="14.00">QuizService</text>
</g>
<!-- QuizService&#45;&gt;QuizModule -->
<g id="edge37" class="edge">
<title>QuizService&#45;&gt;QuizModule</title>
<path fill="none" stroke="black" d="M2094.81,-117.84C2094.81,-134.43 2094.81,-160 2094.81,-160 2094.81,-160 1018.07,-160 1018.07,-160 1018.07,-160 1018.07,-160.18 1018.07,-160.18"/>
<polygon fill="black" stroke="black" points="1014.57,-151.85 1018.07,-161.85 1021.57,-151.85 1014.57,-151.85"/>
</g>
<!-- DbModule -->
<g id="node35" class="node">
<title>DbModule</title>
<polygon fill="#8dd3c7" stroke="black" points="1674.16,-122 1671.16,-126 1650.16,-126 1647.16,-122 1597.84,-122 1597.84,-86 1674.16,-86 1674.16,-122"/>
<text text-anchor="middle" x="1636" y="-99.8" font-family="Times,serif" font-size="14.00">DbModule</text>
</g>
<!-- DbModule&#45;&gt;SharedModule -->
<g id="edge38" class="edge">
<title>DbModule&#45;&gt;SharedModule</title>
<path fill="none" stroke="black" d="M1631.75,-122.15C1631.75,-135.74 1631.75,-152 1631.75,-152 1631.75,-152 670.91,-152 670.91,-152 670.91,-152 670.91,-152.98 670.91,-152.98"/>
<polygon fill="black" stroke="black" points="667.41,-151.79 670.91,-161.79 674.41,-151.79 667.41,-151.79"/>
</g>
<!-- AuthenticateMiddleware -->
<g id="node39" class="node">
<title>AuthenticateMiddleware</title>
<ellipse fill="#fdb462" stroke="black" cx="868" cy="-104" rx="107.06" ry="18"/>
<text text-anchor="middle" x="868" y="-99.8" font-family="Times,serif" font-size="14.00">AuthenticateMiddleware</text>
</g>
<!-- AuthenticateMiddleware&#45;&gt;SharedModule -->
<g id="edge42" class="edge">
<title>AuthenticateMiddleware&#45;&gt;SharedModule</title>
<path fill="none" stroke="black" d="M774.9,-113.08C774.9,-123.75 774.9,-140 774.9,-140 774.9,-140 646.3,-140 646.3,-140 646.3,-140 646.3,-151.87 646.3,-151.87"/>
<polygon fill="black" stroke="black" points="642.8,-151.87 646.3,-161.87 649.8,-151.87 642.8,-151.87"/>
</g>
<!-- AuthenticateMiddleware&#45;&gt;UserCategoryModule -->
<g id="edge46" class="edge">
<title>AuthenticateMiddleware&#45;&gt;UserCategoryModule</title>
<path fill="none" stroke="black" d="M954.09,-114.75C954.09,-122.64 954.09,-132 954.09,-132 954.09,-132 1703.82,-132 1703.82,-132 1703.82,-132 1703.82,-151.85 1703.82,-151.85"/>
<polygon fill="black" stroke="black" points="1700.32,-151.85 1703.82,-161.85 1707.32,-151.85 1700.32,-151.85"/>
</g>
<!-- AuthenticateMiddleware&#45;&gt;UserModule -->
<g id="edge50" class="edge">
<title>AuthenticateMiddleware&#45;&gt;UserModule</title>
<path fill="none" stroke="black" d="M964.56,-111.79C964.56,-118.46 964.56,-127 964.56,-127 964.56,-127 1845.48,-127 1845.48,-127 1845.48,-127 1845.48,-151.76 1845.48,-151.76"/>
<polygon fill="black" stroke="black" points="1841.98,-151.76 1845.48,-161.76 1848.98,-151.76 1841.98,-151.76"/>
</g>
<!-- PaginateHelper -->
<g id="node40" class="node">
<title>PaginateHelper</title>
<ellipse fill="#fdb462" stroke="black" cx="1064" cy="-104" rx="70.62" ry="18"/>
<text text-anchor="middle" x="1064" y="-99.8" font-family="Times,serif" font-size="14.00">PaginateHelper</text>
</g>
<!-- PaginateHelper&#45;&gt;SharedModule -->
<g id="edge43" class="edge">
<title>PaginateHelper&#45;&gt;SharedModule</title>
<path fill="none" stroke="black" d="M1005.75,-114.38C1005.75,-125.63 1005.75,-142 1005.75,-142 1005.75,-142 658.61,-142 658.61,-142 658.61,-142 658.61,-151.89 658.61,-151.89"/>
<polygon fill="black" stroke="black" points="655.11,-151.89 658.61,-161.89 662.11,-151.89 655.11,-151.89"/>
</g>
<!-- PaginateHelper&#45;&gt;UserModule -->
<g id="edge51" class="edge">
<title>PaginateHelper&#45;&gt;UserModule</title>
<path fill="none" stroke="black" d="M1091.26,-120.95C1091.26,-123.34 1091.26,-125 1091.26,-125 1091.26,-125 1848.71,-125 1848.71,-125 1848.71,-125 1848.71,-151.99 1848.71,-151.99"/>
<polygon fill="black" stroke="black" points="1845.21,-151.99 1848.71,-161.99 1852.21,-151.99 1845.21,-151.99"/>
</g>
<!-- UserCategoryService -->
<g id="node42" class="node">
<title>UserCategoryService</title>
<ellipse fill="#fdb462" stroke="black" cx="3714" cy="-245" rx="93.74" ry="18"/>
<text text-anchor="middle" x="3714" y="-240.8" font-family="Times,serif" font-size="14.00">UserCategoryService</text>
</g>
<!-- UserCategoryService&#45;&gt;UserCategoryModule -->
<g id="edge48" class="edge">
<title>UserCategoryService&#45;&gt;UserCategoryModule</title>
<path fill="none" stroke="black" d="M3714,-226.94C3714,-215.56 3714,-203 3714,-203 3714,-203 1752,-203 1752,-203 1752,-203 1752,-202.51 1752,-202.51"/>
<polygon fill="black" stroke="black" points="1755.5,-208.12 1752,-198.12 1748.5,-208.12 1755.5,-208.12"/>
</g>
<!-- UserService -->
<g id="node44" class="node">
<title>UserService</title>
<ellipse fill="#fdb462" stroke="black" cx="4070" cy="-245" rx="58.44" ry="18"/>
<text text-anchor="middle" x="4070" y="-240.8" font-family="Times,serif" font-size="14.00">UserService</text>
</g>
<!-- UserService&#45;&gt;UserModule -->
<g id="edge53" class="edge">
<title>UserService&#45;&gt;UserModule</title>
<path fill="none" stroke="black" d="M4070,-226.98C4070,-209.63 4070,-186 4070,-186 4070,-186 1935.21,-186 1935.21,-186"/>
<polygon fill="black" stroke="black" points="1935.21,-182.5 1925.21,-186 1935.21,-189.5 1935.21,-182.5"/>
</g>
</g>
</svg>
